<?xml version='1.0' encoding='iso-8859-1'?>
<svg version="1.1" xmlns="http://www.w3.org/2000/svg" viewBox="0 0 463.003 463.003" xmlns:xlink="http://www.w3.org/1999/xlink" enable-background="new 0 0 463.003 463.003">
  <g>
    <g>
      <path d="m346.776,45.98c-33.657-31.937-77.801-48.181-124.295-45.74-41.92,2.2-81.372,20.344-111.088,51.087-29.703,30.73-46.522,70.777-47.358,112.763-0.637,31.983 7.766,63.24 24.3,90.391 16.05,26.356 39.013,47.765 66.404,61.912 13.115,6.773 21.262,20.397 21.262,35.557v41.828c0,19.942 9.627,35.713 24.313,42.117 2.144,15.297 15.309,27.108 31.187,27.108 15.854,0 29.003-11.775 31.178-27.037 14.268-5.961 24.322-20.059 24.322-36.463v-47.516c0-15.168 8.196-28.832 21.389-35.66 55.891-28.926 90.611-85.952 90.611-148.824-0.001-46.409-18.548-89.567-52.225-121.523zm-74.776,306.007v8.016h-81v-8.053c0-3.034-0.247-6.023-0.712-8.947h82.433c-0.472,2.936-0.721,5.937-0.721,8.984zm0,40.041c-0.166-0.011-0.331-0.025-0.5-0.025h-80c-0.169,0-0.334,0.014-0.5,0.025v-17.025h81v17.025zm-40.5,55.975c-6.396,0-11.942-3.666-14.679-9h29.357c-2.736,5.334-8.282,9-14.678,9zm16-24h-32c-10.696,0-18.824-6.475-22.438-17h77.759c-3.175,9.851-12.427,17-23.321,17zm53.994-120.997c-10.756,5.567-19.102,14.405-24.129,24.997h-91.701c-5.006-10.583-13.323-19.401-24.044-24.938-24.945-12.883-45.857-32.381-60.476-56.386-15.047-24.709-22.694-53.165-22.114-82.29 0.761-38.188 16.083-74.638 43.146-102.636 27.071-28.007 62.972-44.533 101.089-46.533 2.784-0.146 5.551-0.219 8.313-0.219 39.269,0 76.243,14.696 104.871,41.86 30.662,29.095 47.549,68.389 47.549,110.642 0.002,57.242-31.612,109.164-82.504,135.503z"/>
      <path d="m327.5,144.003h-3.483c-2.253-8.951-5.756-17.429-10.462-25.321l2.445-2.445c2.921-2.921 4.53-6.813 4.53-10.96s-1.609-8.039-4.53-10.96l-11.314-11.314c-6.043-6.042-15.876-6.042-21.92,0l-2.445,2.445c-7.892-4.706-16.37-8.209-25.32-10.462v-3.483c0-8.547-6.953-15.5-15.5-15.5h-16c-8.547,0-15.5,6.953-15.5,15.5v3.483c-8.951,2.253-17.429,5.756-25.32,10.462l-2.445-2.445c-6.043-6.042-15.876-6.042-21.92,0l-11.313,11.314c-2.921,2.921-4.53,6.813-4.53,10.96s1.609,8.039 4.53,10.96l2.445,2.445c-4.707,7.892-8.209,16.37-10.462,25.321h-3.483c-8.547,0-15.5,6.953-15.5,15.5v16c0,8.547 6.953,15.5 15.5,15.5h3.483c2.253,8.951 5.756,17.429 10.462,25.32l-2.445,2.445c-2.921,2.921-4.53,6.813-4.53,10.96 0,4.146 1.609,8.039 4.53,10.96l11.313,11.313c2.921,2.921 6.813,4.53 10.96,4.53s8.039-1.609 10.96-4.53l2.445-2.445c7.892,4.707 16.37,8.209 25.32,10.462v3.483c0,8.547 6.953,15.5 15.5,15.5h16c8.547,0 15.5-6.953 15.5-15.5v-3.483c8.951-2.253 17.429-5.756 25.32-10.462l2.445,2.445c2.921,2.921 6.813,4.53 10.96,4.53 4.146,0 8.039-1.609 10.96-4.53l11.313-11.313c2.921-2.921 4.53-6.813 4.53-10.96s-1.609-8.039-4.53-10.96l-2.445-2.445c4.707-7.892 8.209-16.37 10.462-25.32h3.483c8.547,0 15.5-6.953 15.5-15.5v-16c0.001-8.547-6.952-15.5-15.499-15.5zm.5,31.5c0,0.257-0.243,0.5-0.5,0.5h-9.523c-3.619,0-6.721,2.584-7.376,6.143-2.064,11.219-6.369,21.634-12.793,30.957-2.054,2.979-1.687,7 0.872,9.559l6.713,6.713c0.091,0.091 0.137,0.21 0.137,0.354s-0.046,0.263-0.137,0.354l-11.313,11.313c-0.182,0.182-0.526,0.182-0.708,0l-6.713-6.713c-2.559-2.559-6.58-2.925-9.559-0.872-9.322,6.425-19.738,10.729-30.957,12.793-3.559,0.655-6.143,3.757-6.143,7.376v9.523c0,0.257-0.243,0.5-0.5,0.5h-16c-0.257,0-0.5-0.243-0.5-0.5v-9.523c0-3.619-2.584-6.721-6.143-7.376-11.219-2.064-21.634-6.369-30.957-12.793-1.29-0.89-2.776-1.325-4.253-1.325-1.934,0-3.855,0.746-5.306,2.197l-6.713,6.713c-0.181,0.182-0.525,0.182-0.708,0l-11.313-11.313c-0.091-0.091-0.137-0.21-0.137-0.354s0.046-0.263 0.137-0.354l6.713-6.713c2.559-2.559 2.926-6.58 0.872-9.559-6.425-9.322-10.729-19.738-12.793-30.957-0.655-3.559-3.757-6.143-7.376-6.143h-9.523c-0.257,0-0.5-0.243-0.5-0.5v-16c0-0.257 0.243-0.5 0.5-0.5h9.523c3.619,0 6.721-2.584 7.376-6.143 2.064-11.219 6.369-21.635 12.793-30.957 2.054-2.979 1.687-7-0.872-9.559l-6.713-6.713c-0.091-0.091-0.137-0.21-0.137-0.354s0.046-0.263 0.137-0.354l11.313-11.313c0.183-0.181 0.526-0.183 0.708,0l6.713,6.713c2.559,2.559 6.58,2.926 9.559,0.872 9.322-6.424 19.737-10.729 30.957-12.793 3.559-0.655 6.143-3.757 6.143-7.376v-9.523c0-0.257 0.243-0.5 0.5-0.5h16c0.257,0 0.5,0.243 0.5,0.5v9.523c0,3.619 2.584,6.721 6.143,7.376 11.22,2.064 21.635,6.369 30.957,12.793 2.979,2.054 7,1.687 9.559-0.872l6.713-6.713c0.182-0.181 0.526-0.183 0.708,0l11.313,11.314c0.091,0.091 0.137,0.21 0.137,0.354s-0.046,0.263-0.137,0.354l-6.713,6.713c-2.559,2.559-2.926,6.58-0.872,9.559 6.424,9.322 10.729,19.738 12.793,30.957 0.655,3.559 3.757,6.143 7.376,6.143h9.523c0.257,0 0.5,0.243 0.5,0.5v15.999z"/>
      <path d="m231.5,104.003c-35.014,0-63.5,28.486-63.5,63.5s28.486,63.5 63.5,63.5 63.5-28.486 63.5-63.5-28.486-63.5-63.5-63.5zm0,112c-26.743,0-48.5-21.757-48.5-48.5s21.757-48.5 48.5-48.5 48.5,21.757 48.5,48.5-21.757,48.5-48.5,48.5z"/>
      <path d="m231.5,136.003c-17.369,0-31.5,14.131-31.5,31.5s14.131,31.5 31.5,31.5 31.5-14.131 31.5-31.5-14.131-31.5-31.5-31.5zm0,48c-9.098,0-16.5-7.402-16.5-16.5s7.402-16.5 16.5-16.5 16.5,7.402 16.5,16.5-7.402,16.5-16.5,16.5z"/>
    </g>
  </g>
</svg>
