<?xml version="1.0" encoding="UTF-8" standalone="no"?>
<!-- Generator: Adobe Illustrator 19.1.0, SVG Export Plug-In . SVG Version: 6.00 Build 0)  -->

<svg
   xmlns:dc="http://purl.org/dc/elements/1.1/"
   xmlns:cc="http://creativecommons.org/ns#"
   xmlns:rdf="http://www.w3.org/1999/02/22-rdf-syntax-ns#"
   xmlns:svg="http://www.w3.org/2000/svg"
   xmlns="http://www.w3.org/2000/svg"
   xmlns:sodipodi="http://sodipodi.sourceforge.net/DTD/sodipodi-0.dtd"
   xmlns:inkscape="http://www.inkscape.org/namespaces/inkscape"
   version="1.1"
   id="Capa_1"
   x="0px"
   y="0px"
   viewBox="0 0 16 16"
   xml:space="preserve"
   inkscape:version="0.91 r13725"
   sodipodi:docname="Capability.svg"
   inkscape:export-filename="G:\Workspace\EnterpriseArchitecture\Ducen Architecture Framework\Icons\Kumar\Capability.png"
   inkscape:export-xdpi="2.9614537"
   inkscape:export-ydpi="2.9614537"
   width="16"
   height="16"><metadata
     id="metadata45"><rdf:RDF><cc:Work
         rdf:about=""><dc:format>image/svg+xml</dc:format><dc:type
           rdf:resource="http://purl.org/dc/dcmitype/StillImage" /><dc:title></dc:title></cc:Work></rdf:RDF></metadata><defs
     id="defs43" /><sodipodi:namedview
     pagecolor="#ffffff"
     bordercolor="#666666"
     borderopacity="1"
     objecttolerance="10"
     gridtolerance="10"
     guidetolerance="10"
     inkscape:pageopacity="0"
     inkscape:pageshadow="2"
     inkscape:window-width="1366"
     inkscape:window-height="706"
     id="namedview41"
     showgrid="false"
     inkscape:zoom="33.5625"
     inkscape:cx="8"
     inkscape:cy="8"
     inkscape:window-x="-8"
     inkscape:window-y="-8"
     inkscape:window-maximized="1"
     inkscape:current-layer="Capa_1" /><g
     id="g3"
     transform="matrix(0.03084811,0,0,0.03084642,0.65811381,0.74660129)"><g
       id="g5"><path
         d="m 454.2,189.101 -33.6,-5.7 c -3.5,-11.3 -8,-22.2 -13.5,-32.6 l 19.8,-27.7 c 8.4,-11.8 7.1,-27.9 -3.2,-38.1 l -29.8,-29.8 c -5.6,-5.6 -13,-8.7 -20.9,-8.7 -6.2,0 -12.1,1.9 -17.1,5.5 l -27.8,19.8 c -10.8,-5.7 -22.1,-10.4 -33.8,-13.9 l -5.6,-33.2 c -2.4,-14.3 -14.7,-24.7 -29.2,-24.7 l -42.1,0 c -14.5,0 -26.8,10.4 -29.2,24.7 l -5.8,34 c -11.2,3.5 -22.1,8.1 -32.5,13.7 l -27.5,-19.8 c -5,-3.6 -11,-5.5 -17.2,-5.5 -7.9,0 -15.4,3.1 -20.9,8.7 l -29.9,29.8 c -10.2,10.2 -11.6,26.3 -3.2,38.1 l 20,28.1 c -5.5,10.5 -9.9,21.4 -13.3,32.7 l -33.2,5.6 c -14.3,2.4 -24.7,14.7 -24.7,29.2 l 0,42.1 c 0,14.5 10.4,26.8 24.7,29.2 l 34,5.8 c 3.5,11.2 8.1,22.1 13.7,32.5 l -19.7,27.4 c -8.4,11.8 -7.1,27.9 3.2,38.1 l 29.8,29.8 c 5.6,5.6 13,8.7 20.9,8.7 6.2,0 12.1,-1.9 17.1,-5.5 l 28.1,-20 c 10.1,5.3 20.7,9.6 31.6,13 l 5.6,33.6 c 2.4,14.3 14.7,24.7 29.2,24.7 l 42.2,0 c 14.5,0 26.8,-10.4 29.2,-24.7 l 5.7,-33.6 c 11.3,-3.5 22.2,-8 32.6,-13.5 l 27.7,19.8 c 5,3.6 11,5.5 17.2,5.5 l 0,0 c 7.9,0 15.3,-3.1 20.9,-8.7 l 29.8,-29.8 c 10.2,-10.2 11.6,-26.3 3.2,-38.1 l -19.8,-27.8 c 5.5,-10.5 10.1,-21.4 13.5,-32.6 l 33.6,-5.6 c 14.3,-2.4 24.7,-14.7 24.7,-29.2 l 0,-42.1 c 0.2,-14.5 -10.2,-26.8 -24.5,-29.2 z m -2.3,71.3 c 0,1.3 -0.9,2.4 -2.2,2.6 l -42,7 c -5.3,0.9 -9.5,4.8 -10.8,9.9 -3.8,14.7 -9.6,28.8 -17.4,41.9 -2.7,4.6 -2.5,10.3 0.6,14.7 l 24.7,34.8 c 0.7,1 0.6,2.5 -0.3,3.4 l -29.8,29.8 c -0.7,0.7 -1.4,0.8 -1.9,0.8 -0.6,0 -1.1,-0.2 -1.5,-0.5 l -34.7,-24.7 c -4.3,-3.1 -10.1,-3.3 -14.7,-0.6 -13.1,7.8 -27.2,13.6 -41.9,17.4 -5.2,1.3 -9.1,5.6 -9.9,10.8 l -7.1,42 c -0.2,1.3 -1.3,2.2 -2.6,2.2 l -42.1,0 c -1.3,0 -2.4,-0.9 -2.6,-2.2 l -7,-42 c -0.9,-5.3 -4.8,-9.5 -9.9,-10.8 -14.3,-3.7 -28.1,-9.4 -41,-16.8 -2.1,-1.2 -4.5,-1.8 -6.8,-1.8 -2.7,0 -5.5,0.8 -7.8,2.5 l -35,24.9 c -0.5,0.3 -1,0.5 -1.5,0.5 -0.4,0 -1.2,-0.1 -1.9,-0.8 L 75,375.601 c -0.9,-0.9 -1,-2.3 -0.3,-3.4 l 24.6,-34.5 c 3.1,-4.4 3.3,-10.2 0.6,-14.8 -7.8,-13 -13.8,-27.1 -17.6,-41.8 -1.4,-5.1 -5.6,-9 -10.8,-9.9 l -42.3,-7.2 c -1.3,-0.2 -2.2,-1.3 -2.2,-2.6 l 0,-42.1 c 0,-1.3 0.9,-2.4 2.2,-2.6 l 41.7,-7 c 5.3,-0.9 9.6,-4.8 10.9,-10 3.7,-14.7 9.4,-28.9 17.1,-42 2.7,-4.6 2.4,-10.3 -0.7,-14.6 l -24.9,-35 c -0.7,-1 -0.6,-2.5 0.3,-3.4 l 29.8,-29.8 c 0.7,-0.7 1.4,-0.8 1.9,-0.8 0.6,0 1.1,0.2 1.5,0.5 l 34.5,24.6 c 4.4,3.1 10.2,3.3 14.8,0.6 13,-7.8 27.1,-13.8 41.8,-17.6 5.1,-1.4 9,-5.6 9.9,-10.8 l 7.2,-42.3 c 0.2,-1.3 1.3,-2.2 2.6,-2.2 l 42.1,0 c 1.3,0 2.4,0.9 2.6,2.2 l 7,41.7 c 0.9,5.3 4.8,9.6 10,10.9 15.1,3.8 29.5,9.7 42.9,17.6 4.6,2.7 10.3,2.5 14.7,-0.6 l 34.5,-24.8 c 0.5,-0.3 1,-0.5 1.5,-0.5 0.4,0 1.2,0.1 1.9,0.8 l 29.8,29.8 c 0.9,0.9 1,2.3 0.3,3.4 l -24.7,34.7 c -3.1,4.3 -3.3,10.1 -0.6,14.7 7.8,13.1 13.6,27.2 17.4,41.9 1.3,5.2 5.6,9.1 10.8,9.9 l 42,7.1 c 1.3,0.2 2.2,1.3 2.2,2.6 l 0,42.1 -0.1,0 z"
         id="path7"
         inkscape:connector-curvature="0" /><path
         d="m 239.4,136.001 c -57,0 -103.3,46.3 -103.3,103.3 0,57 46.3,103.3 103.3,103.3 57,0 103.3,-46.3 103.3,-103.3 0,-57 -46.3,-103.3 -103.3,-103.3 z m 0,179.6 c -42.1,0 -76.3,-34.2 -76.3,-76.3 0,-42.1 34.2,-76.3 76.3,-76.3 42.1,0 76.3,34.2 76.3,76.3 0,42.1 -34.2,76.3 -76.3,76.3 z"
         id="path9"
         inkscape:connector-curvature="0" /></g></g><g
     id="g11"
     transform="matrix(0.03084811,0,0,0.03084642,0.65811381,0.74660129)" /><g
     id="g13"
     transform="matrix(0.03084811,0,0,0.03084642,0.65811381,0.74660129)" /><g
     id="g15"
     transform="matrix(0.03084811,0,0,0.03084642,0.65811381,0.74660129)" /><g
     id="g17"
     transform="matrix(0.03084811,0,0,0.03084642,0.65811381,0.74660129)" /><g
     id="g19"
     transform="matrix(0.03084811,0,0,0.03084642,0.65811381,0.74660129)" /><g
     id="g21"
     transform="matrix(0.03084811,0,0,0.03084642,0.65811381,0.74660129)" /><g
     id="g23"
     transform="matrix(0.03084811,0,0,0.03084642,0.65811381,0.74660129)" /><g
     id="g25"
     transform="matrix(0.03084811,0,0,0.03084642,0.65811381,0.74660129)" /><g
     id="g27"
     transform="matrix(0.03084811,0,0,0.03084642,0.65811381,0.74660129)" /><g
     id="g29"
     transform="matrix(0.03084811,0,0,0.03084642,0.65811381,0.74660129)" /><g
     id="g31"
     transform="matrix(0.03084811,0,0,0.03084642,0.65811381,0.74660129)" /><g
     id="g33"
     transform="matrix(0.03084811,0,0,0.03084642,0.65811381,0.74660129)" /><g
     id="g35"
     transform="matrix(0.03084811,0,0,0.03084642,0.65811381,0.74660129)" /><g
     id="g37"
     transform="matrix(0.03084811,0,0,0.03084642,0.65811381,0.74660129)" /><g
     id="g39"
     transform="matrix(0.03084811,0,0,0.03084642,0.65811381,0.74660129)" /><path
     style="opacity:1;fill:#bbd337;fill-opacity:1;stroke:#bbd337;stroke-width:0.29577154;stroke-miterlimit:4;stroke-dasharray:none;stroke-opacity:1"
     d="M 6.9594231,15.352946 C 6.6599567,15.17036 6.565738,14.979361 6.4491159,14.318443 L 6.3431131,13.717712 5.8328351,13.497577 5.3225571,13.277434 4.8956644,13.585629 C 4.3266833,13.996394 4.2112639,14.051332 3.9255251,14.047384 3.601836,14.042948 3.3718081,13.89026 2.7937479,13.296279 1.9983239,12.478955 1.9673517,12.22941 2.5595556,11.409401 L 2.9203087,10.909874 2.6964241,10.382689 2.4725393,9.8555058 1.9689183,9.7799709 C 0.83649911,9.6101376 0.68314261,9.4161068 0.68314261,8.1531435 c 0,-0.858711 0.026924,-0.9716547 0.301884,-1.2664012 C 1.1566093,6.7028179 1.3288215,6.6437473 2.0284486,6.5288149 L 2.4664554,6.4568804 2.67332,5.927227 2.8801842,5.3975736 2.5740925,4.9767608 C 2.1591815,4.406342 2.1223073,4.3269185 2.1223073,4.0036792 c 0,-0.2309517 0.042321,-0.3331608 0.2413409,-0.582876 C 2.7303239,2.9607185 3.3415973,2.4054851 3.6005639,2.2972877 3.9340566,2.1579582 4.1596791,2.2248358 4.7517318,2.6386843 l 0.5193,0.3629621 0.5061693,-0.2166388 C 6.0555942,2.6658538 6.2906413,2.5627428 6.299528,2.555882 6.308418,2.549232 6.366735,2.2575131 6.4291287,1.908095 6.6084503,0.90385161 6.7970167,0.77164156 8.0500065,0.77164156 c 0.653623,0 0.8408516,0.0209963 1.0188106,0.11412663 C 9.3602019,1.0382944 9.5275743,1.3833727 9.6237723,2.0299399 l 0.07856,0.5280491 0.3554047,0.1315595 c 0.195472,0.072379 0.443004,0.1678593 0.550071,0.2122177 0.187462,0.07768 0.213063,0.06772 0.691813,-0.2696692 0.852092,-0.6004492 1.04637,-0.5807394 1.842783,0.1869631 0.717951,0.692064 0.830124,0.871353 0.792187,1.2661424 -0.0228,0.2371692 -0.09592,0.394597 -0.339637,0.7311806 -0.170826,0.23592 -0.329362,0.4602326 -0.352304,0.4984843 -0.02294,0.038223 0.05471,0.3050746 0.172551,0.5929529 l 0.214263,0.5233988 0.600999,0.1060387 c 1.048654,0.1850261 1.156714,0.3332124 1.156714,1.5862395 0,0.7639467 -0.0159,0.9020416 -0.124338,1.0798817 -0.181437,0.2975705 -0.450811,0.4326416 -1.036593,0.5197837 -0.286034,0.042584 -0.543198,0.094225 -0.571475,0.1148141 -0.119642,0.087142 -0.476621,1.0247592 -0.420773,1.1051812 0.662534,0.953993 0.714482,1.047611 0.714482,1.287567 0,0.350816 -0.106072,0.514261 -0.730742,1.126014 -0.621721,0.608857 -0.731176,0.679519 -1.052571,0.679519 -0.271155,0 -0.369586,-0.04783 -0.928958,-0.451701 l -0.428381,-0.309266 -0.510204,0.207729 c -0.280613,0.114252 -0.5270577,0.230961 -0.5476547,0.259349 -0.02059,0.02839 -0.07226,0.285624 -0.11482,0.571639 -0.08715,0.585752 -0.2222317,0.85511 -0.519813,1.036536 -0.1778532,0.108434 -0.3159567,0.124336 -1.079945,0.124336 -0.7581696,0 -0.9029123,-0.01642 -1.0759738,-0.121919 z m 1.9560735,-1.397184 c 0.071539,-0.405598 0.1702794,-0.775347 0.2194229,-0.821664 0.049147,-0.04636 0.2442191,-0.133704 0.4335008,-0.194186 0.189282,-0.06047 0.5385547,-0.207131 0.7761617,-0.325865 0.508606,-0.254158 0.488883,-0.258845 1.262505,0.299612 0.283245,0.204469 0.538144,0.371761 0.566441,0.371761 0.06911,0 1.02409,-0.952263 1.02409,-1.021182 0,-0.02987 -0.167299,-0.28603 -0.371777,-0.569265 -0.559293,-0.774697 -0.55432,-0.753419 -0.296088,-1.266172 0.120691,-0.239647 0.265333,-0.5935818 0.321424,-0.7865185 0.05609,-0.1929365 0.145577,-0.3869747 0.198858,-0.4311926 0.05328,-0.04421 0.425057,-0.138265 0.826168,-0.2090091 l 0.729293,-0.1286096 0.01756,-0.7273364 c 0.0135,-0.5586859 -0.0017,-0.7347073 -0.06532,-0.7591412 -0.04559,-0.017521 -0.383604,-0.081154 -0.751142,-0.1414661 -0.42382,-0.069569 -0.700245,-0.1464492 -0.755719,-0.2102586 -0.0481,-0.0553 -0.13726,-0.2554597 -0.198119,-0.4447293 C 12.791903,6.4012699 12.644954,6.0520145 12.52621,5.8144237 12.273131,5.3080363 12.263561,5.3479809 12.826484,4.5610418 L 13.217383,4.014584 12.689136,3.4863648 12.16089,2.9581531 11.537309,3.4016921 C 11.117127,3.7005565 10.872908,3.8357755 10.788583,3.8162504 10.719755,3.8002815 10.438178,3.6898069 10.162859,3.5706826 9.8875403,3.4515583 9.5301513,3.3062921 9.3686592,3.2478722 9.0323501,3.1262046 8.9973285,3.0548394 8.87503,2.2420024 8.7604735,1.4806062 8.8043648,1.5154349 7.9851874,1.5360763 L 7.2845297,1.5537457 7.1515161,2.2888004 C 7.0783575,2.6930749 6.9846786,3.0645982 6.9433398,3.1144053 6.902001,3.1642345 6.7225179,3.252685 6.5444889,3.3110015 6.3664598,3.3693327 6.0314388,3.5116417 5.7999982,3.6272765 5.5685572,3.7429038 5.3202284,3.8375128 5.2481561,3.8375128 5.1760843,3.8375128 4.8612678,3.6544976 4.5485652,3.4308134 4.2358624,3.207129 3.948537,3.0241214 3.9100643,3.0241214 c -0.038473,0 -0.2919976,0.2233441 -0.5633878,0.496318 L 2.8532396,4.0167575 2.9660297,4.18889 c 0.062035,0.094668 0.2636235,0.3823321 0.4479754,0.6392555 0.1843521,0.2569162 0.3351856,0.5058626 0.3351856,0.5532078 0,0.047316 -0.096208,0.2771064 -0.2137943,0.5105941 C 3.4178097,6.1254275 3.2757094,6.4743206 3.2196181,6.6672572 3.1635266,6.8601939 3.0787256,7.050336 3.0311706,7.0898 2.9836153,7.1292791 2.6399979,7.2161623 2.2675753,7.2828994 1.895153,7.3496587 1.5552466,7.4173716 1.5122281,7.4334144 c -0.056097,0.020923 -0.078216,0.2247935 -0.078216,0.7209414 0,0.8097321 -0.072436,0.737465 0.9053143,0.9031655 0.3430563,0.058109 0.6563878,0.1327941 0.6962925,0.165915 0.039905,0.033121 0.1489129,0.2778237 0.242241,0.5438037 0.093328,0.265973 0.2375572,0.601233 0.3205088,0.745014 0.082951,0.143772 0.1508215,0.329448 0.1508215,0.412606 0,0.08605 -0.1752129,0.396105 -0.4067205,0.719707 -0.2236963,0.312689 -0.4067205,0.59225 -0.4067205,0.621245 0,0.10927 0.9923554,1.036337 1.0739443,1.003297 0.046005,-0.01863 0.3228893,-0.2056 0.6152992,-0.415482 0.29241,-0.209874 0.5911385,-0.381599 0.663841,-0.381599 0.072702,0 0.3402941,0.09584 0.5946482,0.212979 0.254354,0.117136 0.57766,0.243711 0.7184575,0.28129 0.140798,0.03755 0.3006457,0.11772 0.3552176,0.178085 0.054572,0.0604 0.1439433,0.377245 0.1986034,0.704167 0.1660635,0.993219 0.051053,0.882605 0.8965483,0.862289 l 0.7331187,-0.01761 0.1300706,-0.737459 z"
     id="path4205"
     inkscape:connector-curvature="0" /><path
     style="opacity:1;fill:#bbd337;fill-opacity:1;stroke:#bbd337;stroke-width:0.29577154;stroke-miterlimit:4;stroke-dasharray:none;stroke-opacity:1"
     d="M 7.292918,11.18395 C 5.7416781,10.808493 4.684999,9.2356866 4.9291154,7.6655491 5.1550908,6.2121038 6.3520538,5.1082906 7.832968,4.9876952 9.9003833,4.8193404 11.623262,6.8609258 11.102126,8.8615905 10.656801,10.571221 8.9814471,11.59263 7.292918,11.18395 Z M 8.8407726,10.368798 C 9.4725763,10.148404 10.051673,9.5654095 10.294199,8.905594 10.449872,8.4820679 10.43404,7.7116892 10.260404,7.2609937 10.076606,6.7839271 9.5499153,6.2141442 9.0789537,5.9828819 8.7555967,5.8240938 8.6618873,5.8084281 8.0353988,5.8084281 c -0.6637486,0 -0.7022482,0.00754 -1.0795047,0.2121363 -0.4752122,0.2576924 -0.8467453,0.647617 -1.0692055,1.1221404 -0.147287,0.3141753 -0.1664072,0.430786 -0.165943,1.0120576 4.873e-4,0.6142005 0.01331,0.6814847 0.1968776,1.0334091 0.231539,0.4438865 0.7236528,0.9265645 1.1262159,1.1046265 0.5569568,0.246359 1.227292,0.274704 1.7969357,0.076 z"
     id="path4207"
     inkscape:connector-curvature="0"
     inkscape:export-xdpi="6.73"
     inkscape:export-ydpi="6.73" /></svg>