<?xml version="1.0" encoding="UTF-8" standalone="no"?>
<svg
   xmlns:dc="http://purl.org/dc/elements/1.1/"
   xmlns:cc="http://creativecommons.org/ns#"
   xmlns:rdf="http://www.w3.org/1999/02/22-rdf-syntax-ns#"
   xmlns:svg="http://www.w3.org/2000/svg"
   xmlns="http://www.w3.org/2000/svg"
   xmlns:sodipodi="http://sodipodi.sourceforge.net/DTD/sodipodi-0.dtd"
   xmlns:inkscape="http://www.inkscape.org/namespaces/inkscape"
   inkscape:version="1.0 (4035a4fb49, 2020-05-01)"
   sodipodi:docname="channel.svg"
   version="1.1"
   overflow="hidden"
   id="Icons_Send_M"
   viewBox="0 0 96 96">
  <metadata
     id="metadata10">
    <rdf:RDF>
      <cc:Work
         rdf:about="">
        <dc:format>image/svg+xml</dc:format>
        <dc:type
           rdf:resource="http://purl.org/dc/dcmitype/StillImage" />
      </cc:Work>
    </rdf:RDF>
  </metadata>
  <defs
     id="defs8" />
  <sodipodi:namedview
     inkscape:current-layer="Icons_Send_M"
     inkscape:window-maximized="1"
     inkscape:window-y="-8"
     inkscape:window-x="-8"
     inkscape:cy="48"
     inkscape:cx="48"
     inkscape:zoom="9.2708333"
     showgrid="false"
     id="namedview6"
     inkscape:window-height="1057"
     inkscape:window-width="1920"
     inkscape:pageshadow="2"
     inkscape:pageopacity="0"
     guidetolerance="10"
     gridtolerance="10"
     objecttolerance="10"
     borderopacity="1"
     bordercolor="#666666"
     pagecolor="#ffffff" />
  <g
     inkscape:export-ydpi="19.4"
     inkscape:export-xdpi="19.4"
     inkscape:export-filename="C:\Users\broth\Dropbox\work\Method\EA method\3.1\Icons\png\channel.png"
     id="Icons">
    <path
       id="path2"
       fill="#FFFFFF"
       stroke-width="1.33333"
       stroke="#5B9BD5"
       d="M86.58 12.186C86.2711 11.9654 85.864 11.9387 85.529 12.117L9.7 52.561C9.21253 52.8206 9.0278 53.4262 9.2874 53.9137 9.4062 54.1368 9.60507 54.3066 9.844 54.389L33.026 62.412 33.445 62.55 40.045 83.303C40.1507 83.6359 40.4226 83.8895 40.762 83.972 40.84 83.9904 40.9199 83.9998 41 84 41.2652 83.9999 41.5195 83.8945 41.707 83.707L55.445 69.97 75.674 76.945C75.9534 77.0432 76.262 77.0109 76.515 76.857 76.7683 76.705 76.9415 76.4488 76.988 76.157L86.988 13.157C87.0473 12.7821 86.8892 12.406 86.58 12.186ZM12.68 53.237 78.713 18.02C78.7174 18.0167 78.7237 18.0176 78.727 18.022 78.7303 18.0264 78.7294 18.0327 78.725 18.036L33.884 60.578 12.684 53.256C12.6783 53.2539 12.6754 53.2476 12.6774 53.2419 12.6781 53.24 12.6794 53.2383 12.681 53.237ZM35.35 61.944 79.374 20.177C79.3779 20.1729 79.3844 20.1726 79.3885 20.1765 79.3926 20.1804 79.3929 20.1869 79.389 20.191L44.979 64.967C44.9024 65.0644 44.8463 65.1763 44.814 65.296L40.921 79.396C40.921 79.4015 40.9165 79.406 40.911 79.406 40.9055 79.406 40.901 79.4015 40.901 79.396ZM42.929 79.629 46.452 66.869 53.341 69.244 42.941 79.639C42.9356 79.6401 42.9303 79.6366 42.9292 79.6312 42.9291 79.6305 42.929 79.6297 42.929 79.629ZM75.188 74.662 47.411 65.084 84.326 17.049C84.3279 17.0443 84.3333 17.0421 84.338 17.044 84.3427 17.0459 84.3449 17.0513 84.343 17.056L75.2 74.654C75.199 74.6594 75.1938 74.6631 75.1884 74.6621 75.1883 74.6621 75.1881 74.662 75.188 74.662Z" />
  </g>
</svg>
