<svg xmlns="http://www.w3.org/2000/svg" width="16" height="16" viewBox="0 0 16 16" role="img" aria-labelledby="dActor-title">
  <title id="dActor-title">dActor DAF stereotype</title>
  <g shape-rendering="crispEdges">
    <rect x="0" y="0" width="6" height="1" fill="#ffffff"/>
    <rect x="6" y="0" width="1" height="1" fill="#fbfaff"/>
    <rect x="7" y="0" width="1" height="1" fill="#d3cdff"/>
    <rect x="8" y="0" width="1" height="1" fill="#d2ccff"/>
    <rect x="9" y="0" width="1" height="1" fill="#faf9ff"/>
    <rect x="10" y="0" width="6" height="1" fill="#ffffff"/>
    <rect x="0" y="1" width="5" height="5" fill="#ffffff"/>
    <rect x="5" y="1" width="1" height="1" fill="#f1efff"/>
    <rect x="6" y="1" width="1" height="1" fill="#6a58ff"/>
    <rect x="7" y="1" width="1" height="1" fill="#5a45ff"/>
    <rect x="8" y="1" width="1" height="1" fill="#5b47ff"/>
    <rect x="9" y="1" width="1" height="1" fill="#6754ff"/>
    <rect x="10" y="1" width="1" height="1" fill="#eeecff"/>
    <rect x="11" y="1" width="5" height="5" fill="#ffffff"/>
    <rect x="5" y="2" width="1" height="1" fill="#9688ff"/>
    <rect x="6" y="2" width="1" height="1" fill="#7e6eff"/>
    <rect x="7" y="2" width="1" height="1" fill="#fbfbff"/>
    <rect x="8" y="2" width="1" height="1" fill="#fcfcff"/>
    <rect x="9" y="2" width="1" height="1" fill="#8475ff"/>
    <rect x="10" y="2" width="1" height="1" fill="#8e80ff"/>
    <rect x="5" y="3" width="1" height="2" fill="#5c47ff"/>
    <rect x="6" y="3" width="1" height="1" fill="#c1b9ff"/>
    <rect x="7" y="3" width="2" height="2" fill="#ffffff"/>
    <rect x="9" y="3" width="1" height="1" fill="#c9c2ff"/>
    <rect x="10" y="3" width="1" height="1" fill="#6653ff"/>
    <rect x="6" y="4" width="1" height="1" fill="#9b8fff"/>
    <rect x="9" y="4" width="1" height="1" fill="#a398ff"/>
    <rect x="10" y="4" width="1" height="1" fill="#7d6dff"/>
    <rect x="5" y="5" width="1" height="1" fill="#ddd9ff"/>
    <rect x="6" y="5" width="1" height="1" fill="#503bff"/>
    <rect x="7" y="5" width="2" height="1" fill="#8373ff"/>
    <rect x="9" y="5" width="1" height="1" fill="#503aff"/>
    <rect x="10" y="5" width="1" height="1" fill="#d7d2ff"/>
    <rect x="0" y="6" width="6" height="1" fill="#ffffff"/>
    <rect x="6" y="6" width="1" height="1" fill="#e4e1ff"/>
    <rect x="7" y="6" width="2" height="1" fill="#5c47ff"/>
    <rect x="9" y="6" width="1" height="1" fill="#e1deff"/>
    <rect x="10" y="6" width="6" height="1" fill="#ffffff"/>
    <rect x="0" y="7" width="7" height="1" fill="#ffffff"/>
    <rect x="7" y="7" width="1" height="1" fill="#a89dff"/>
    <rect x="8" y="7" width="1" height="1" fill="#5c47ff"/>
    <rect x="9" y="7" width="7" height="1" fill="#ffffff"/>
    <rect x="0" y="8" width="3" height="2" fill="#ffffff"/>
    <rect x="3" y="8" width="1" height="1" fill="#d0caff"/>
    <rect x="4" y="8" width="8" height="1" fill="#5c47ff"/>
    <rect x="12" y="8" width="1" height="1" fill="#cec8ff"/>
    <rect x="13" y="8" width="3" height="2" fill="#ffffff"/>
    <rect x="3" y="9" width="1" height="1" fill="#dedaff"/>
    <rect x="4" y="9" width="3" height="1" fill="#a99eff"/>
    <rect x="7" y="9" width="1" height="1" fill="#7b6aff"/>
    <rect x="8" y="9" width="1" height="1" fill="#6956ff"/>
    <rect x="9" y="9" width="3" height="1" fill="#a99eff"/>
    <rect x="12" y="9" width="1" height="1" fill="#ddd9ff"/>
    <rect x="0" y="10" width="7" height="2" fill="#ffffff"/>
    <rect x="7" y="10" width="1" height="1" fill="#aa9fff"/>
    <rect x="8" y="10" width="1" height="3" fill="#5c47ff"/>
    <rect x="9" y="10" width="7" height="2" fill="#ffffff"/>
    <rect x="7" y="11" width="1" height="1" fill="#a89dff"/>
    <rect x="0" y="12" width="6" height="1" fill="#ffffff"/>
    <rect x="6" y="12" width="1" height="1" fill="#c1b9ff"/>
    <rect x="7" y="12" width="1" height="1" fill="#523dff"/>
    <rect x="9" y="12" width="1" height="1" fill="#a095ff"/>
    <rect x="10" y="12" width="1" height="1" fill="#fbfaff"/>
    <rect x="11" y="12" width="5" height="1" fill="#ffffff"/>
    <rect x="0" y="13" width="4" height="1" fill="#ffffff"/>
    <rect x="4" y="13" width="1" height="1" fill="#efedff"/>
    <rect x="5" y="13" width="1" height="1" fill="#5c47ff"/>
    <rect x="6" y="13" width="1" height="1" fill="#533dff"/>
    <rect x="7" y="13" width="1" height="1" fill="#b5acff"/>
    <rect x="8" y="13" width="1" height="1" fill="#dfdaff"/>
    <rect x="9" y="13" width="2" height="1" fill="#5c47ff"/>
    <rect x="11" y="13" width="1" height="1" fill="#d9d4ff"/>
    <rect x="12" y="13" width="4" height="1" fill="#ffffff"/>
    <rect x="0" y="14" width="3" height="1" fill="#ffffff"/>
    <rect x="3" y="14" width="1" height="1" fill="#eceaff"/>
    <rect x="4" y="14" width="1" height="1" fill="#5c47ff"/>
    <rect x="5" y="14" width="1" height="1" fill="#8172ff"/>
    <rect x="6" y="14" width="1" height="1" fill="#eeecff"/>
    <rect x="7" y="14" width="2" height="1" fill="#ffffff"/>
    <rect x="9" y="14" width="1" height="1" fill="#fbfaff"/>
    <rect x="10" y="14" width="1" height="1" fill="#a296ff"/>
    <rect x="11" y="14" width="1" height="1" fill="#5c47ff"/>
    <rect x="12" y="14" width="1" height="1" fill="#dbd6ff"/>
    <rect x="13" y="14" width="3" height="1" fill="#ffffff"/>
    <rect x="0" y="15" width="4" height="1" fill="#ffffff"/>
    <rect x="4" y="15" width="1" height="1" fill="#d4ceff"/>
    <rect x="5" y="15" width="6" height="1" fill="#ffffff"/>
    <rect x="11" y="15" width="1" height="1" fill="#e4e1ff"/>
    <rect x="12" y="15" width="4" height="1" fill="#ffffff"/>
  </g>
</svg>
