<svg xmlns="http://www.w3.org/2000/svg" width="16" height="16" viewBox="0 0 16 16" role="img" aria-labelledby="dEvent-title">
  <title id="dEvent-title">dEvent DAF stereotype</title>
  <g shape-rendering="crispEdges">
    <rect x="0" y="0" width="1" height="1" fill="#e0eba1"/>
    <rect x="1" y="0" width="1" height="1" fill="#bdd53a"/>
    <rect x="2" y="0" width="5" height="1" fill="#bdd539"/>
    <rect x="7" y="0" width="1" height="1" fill="#cadd61"/>
    <rect x="8" y="0" width="1" height="1" fill="#fafcef"/>
    <rect x="9" y="0" width="7" height="1" fill="#ffffff"/>
    <rect x="0" y="1" width="1" height="1" fill="#ffffff"/>
    <rect x="1" y="1" width="1" height="1" fill="#e4eeb0"/>
    <rect x="2" y="1" width="1" height="1" fill="#bcd43a"/>
    <rect x="3" y="1" width="5" height="1" fill="#bbd338"/>
    <rect x="8" y="1" width="1" height="1" fill="#c6da57"/>
    <rect x="9" y="1" width="1" height="1" fill="#f7fae7"/>
    <rect x="10" y="1" width="6" height="1" fill="#ffffff"/>
    <rect x="0" y="2" width="2" height="1" fill="#ffffff"/>
    <rect x="2" y="2" width="1" height="1" fill="#e8f0bd"/>
    <rect x="3" y="2" width="1" height="1" fill="#bcd33b"/>
    <rect x="4" y="2" width="1" height="1" fill="#bad236"/>
    <rect x="5" y="2" width="1" height="1" fill="#d1e277"/>
    <rect x="6" y="2" width="1" height="1" fill="#f4f9d8"/>
    <rect x="7" y="2" width="1" height="1" fill="#cadd63"/>
    <rect x="8" y="2" width="1" height="1" fill="#bad236"/>
    <rect x="9" y="2" width="1" height="1" fill="#c2d74d"/>
    <rect x="10" y="2" width="1" height="1" fill="#f4f8df"/>
    <rect x="11" y="2" width="5" height="1" fill="#ffffff"/>
    <rect x="0" y="3" width="3" height="1" fill="#ffffff"/>
    <rect x="3" y="3" width="1" height="1" fill="#ecf2c9"/>
    <rect x="4" y="3" width="1" height="1" fill="#bbd23e"/>
    <rect x="5" y="3" width="1" height="1" fill="#b8d034"/>
    <rect x="6" y="3" width="1" height="1" fill="#cedf71"/>
    <rect x="7" y="3" width="1" height="1" fill="#f7fbdf"/>
    <rect x="8" y="3" width="1" height="1" fill="#ccdd6a"/>
    <rect x="9" y="3" width="1" height="1" fill="#b8d034"/>
    <rect x="10" y="3" width="1" height="1" fill="#bdd443"/>
    <rect x="11" y="3" width="1" height="1" fill="#f0f5d5"/>
    <rect x="12" y="3" width="4" height="1" fill="#ffffff"/>
    <rect x="0" y="4" width="4" height="1" fill="#ffffff"/>
    <rect x="4" y="4" width="1" height="1" fill="#f0f4d4"/>
    <rect x="5" y="4" width="1" height="1" fill="#bbd142"/>
    <rect x="6" y="4" width="1" height="1" fill="#b6cd33"/>
    <rect x="7" y="4" width="1" height="1" fill="#cbdb6a"/>
    <rect x="8" y="4" width="1" height="1" fill="#f7fbdf"/>
    <rect x="9" y="4" width="1" height="1" fill="#cddd70"/>
    <rect x="10" y="4" width="1" height="1" fill="#b6cd33"/>
    <rect x="11" y="4" width="1" height="1" fill="#bad03d"/>
    <rect x="12" y="4" width="1" height="1" fill="#ecf2c9"/>
    <rect x="13" y="4" width="3" height="1" fill="#ffffff"/>
    <rect x="0" y="5" width="5" height="1" fill="#ffffff"/>
    <rect x="5" y="5" width="1" height="1" fill="#f3f7de"/>
    <rect x="6" y="5" width="1" height="1" fill="#bbd148"/>
    <rect x="7" y="5" width="1" height="1" fill="#b3cb31"/>
    <rect x="8" y="5" width="1" height="1" fill="#c5d860"/>
    <rect x="9" y="5" width="1" height="1" fill="#f4f9d8"/>
    <rect x="10" y="5" width="1" height="1" fill="#cddd73"/>
    <rect x="11" y="5" width="1" height="1" fill="#b3cb31"/>
    <rect x="12" y="5" width="1" height="1" fill="#b5cc37"/>
    <rect x="13" y="5" width="1" height="1" fill="#e7eebd"/>
    <rect x="14" y="5" width="2" height="1" fill="#ffffff"/>
    <rect x="0" y="6" width="6" height="1" fill="#ffffff"/>
    <rect x="6" y="6" width="1" height="1" fill="#f6f8e6"/>
    <rect x="7" y="6" width="1" height="1" fill="#bdd14e"/>
    <rect x="8" y="6" width="1" height="1" fill="#b1c92e"/>
    <rect x="9" y="6" width="1" height="1" fill="#c0d455"/>
    <rect x="10" y="6" width="1" height="1" fill="#fafde8"/>
    <rect x="11" y="6" width="1" height="1" fill="#cddd75"/>
    <rect x="12" y="6" width="1" height="1" fill="#b1c92e"/>
    <rect x="13" y="6" width="1" height="1" fill="#b2ca30"/>
    <rect x="14" y="6" width="1" height="1" fill="#e0eaad"/>
    <rect x="15" y="6" width="1" height="1" fill="#ffffff"/>
    <rect x="0" y="7" width="7" height="2" fill="#ffffff"/>
    <rect x="7" y="7" width="1" height="2" fill="#f8faed"/>
    <rect x="8" y="7" width="1" height="1" fill="#bed156"/>
    <rect x="9" y="7" width="1" height="1" fill="#aec62c"/>
    <rect x="10" y="7" width="1" height="1" fill="#ebf2c2"/>
    <rect x="11" y="7" width="1" height="2" fill="#fafde8"/>
    <rect x="12" y="7" width="1" height="1" fill="#ccdc77"/>
    <rect x="13" y="7" width="1" height="1" fill="#aec62c"/>
    <rect x="14" y="7" width="1" height="1" fill="#aec62d"/>
    <rect x="15" y="7" width="1" height="1" fill="#dae59d"/>
    <rect x="8" y="8" width="1" height="1" fill="#bdcf55"/>
    <rect x="9" y="8" width="1" height="1" fill="#acc32a"/>
    <rect x="10" y="8" width="1" height="1" fill="#eaf1c2"/>
    <rect x="12" y="8" width="1" height="1" fill="#cbda76"/>
    <rect x="13" y="8" width="1" height="1" fill="#acc32a"/>
    <rect x="14" y="8" width="1" height="1" fill="#acc32b"/>
    <rect x="15" y="8" width="1" height="1" fill="#d8e39b"/>
    <rect x="0" y="9" width="6" height="1" fill="#ffffff"/>
    <rect x="6" y="9" width="1" height="1" fill="#f5f7e5"/>
    <rect x="7" y="9" width="1" height="1" fill="#b6ca49"/>
    <rect x="8" y="9" width="1" height="1" fill="#a9c128"/>
    <rect x="9" y="9" width="1" height="1" fill="#bace51"/>
    <rect x="10" y="9" width="1" height="1" fill="#fafde8"/>
    <rect x="11" y="9" width="1" height="1" fill="#c8d872"/>
    <rect x="12" y="9" width="1" height="1" fill="#a9c128"/>
    <rect x="13" y="9" width="1" height="1" fill="#aac22b"/>
    <rect x="14" y="9" width="1" height="1" fill="#dde6aa"/>
    <rect x="15" y="9" width="1" height="1" fill="#ffffff"/>
    <rect x="0" y="10" width="5" height="1" fill="#ffffff"/>
    <rect x="5" y="10" width="1" height="1" fill="#f1f5dc"/>
    <rect x="6" y="10" width="1" height="1" fill="#b1c53f"/>
    <rect x="7" y="10" width="1" height="1" fill="#a7be26"/>
    <rect x="8" y="10" width="1" height="1" fill="#bcce58"/>
    <rect x="9" y="10" width="1" height="1" fill="#f3f7d7"/>
    <rect x="10" y="10" width="1" height="1" fill="#c5d56d"/>
    <rect x="11" y="10" width="1" height="1" fill="#a7be26"/>
    <rect x="12" y="10" width="1" height="1" fill="#a9c02c"/>
    <rect x="13" y="10" width="1" height="1" fill="#e2eab8"/>
    <rect x="14" y="10" width="2" height="1" fill="#ffffff"/>
    <rect x="0" y="11" width="4" height="1" fill="#ffffff"/>
    <rect x="4" y="11" width="1" height="1" fill="#ecf1d0"/>
    <rect x="5" y="11" width="1" height="1" fill="#acc133"/>
    <rect x="6" y="11" width="1" height="1" fill="#a5bc23"/>
    <rect x="7" y="11" width="1" height="1" fill="#becf5e"/>
    <rect x="8" y="11" width="1" height="1" fill="#f6fade"/>
    <rect x="9" y="11" width="1" height="1" fill="#c2d265"/>
    <rect x="10" y="11" width="1" height="1" fill="#a5bc23"/>
    <rect x="11" y="11" width="1" height="1" fill="#a9bf2d"/>
    <rect x="12" y="11" width="1" height="1" fill="#e7edc5"/>
    <rect x="13" y="11" width="3" height="1" fill="#ffffff"/>
    <rect x="0" y="12" width="3" height="1" fill="#ffffff"/>
    <rect x="3" y="12" width="1" height="1" fill="#e7edc5"/>
    <rect x="4" y="12" width="1" height="1" fill="#a6bd2b"/>
    <rect x="5" y="12" width="1" height="1" fill="#a2ba21"/>
    <rect x="6" y="12" width="1" height="1" fill="#c0d164"/>
    <rect x="7" y="12" width="1" height="1" fill="#f6fade"/>
    <rect x="8" y="12" width="1" height="1" fill="#bcce5c"/>
    <rect x="9" y="12" width="1" height="1" fill="#a2ba21"/>
    <rect x="10" y="12" width="1" height="1" fill="#a9bf32"/>
    <rect x="11" y="12" width="1" height="1" fill="#ecf1d1"/>
    <rect x="12" y="12" width="4" height="1" fill="#ffffff"/>
    <rect x="0" y="13" width="2" height="1" fill="#ffffff"/>
    <rect x="2" y="13" width="1" height="1" fill="#e0e8b6"/>
    <rect x="3" y="13" width="1" height="1" fill="#a2b925"/>
    <rect x="4" y="13" width="1" height="1" fill="#a0b720"/>
    <rect x="5" y="13" width="1" height="1" fill="#c1d169"/>
    <rect x="6" y="13" width="1" height="1" fill="#f2f7d6"/>
    <rect x="7" y="13" width="1" height="1" fill="#b7c953"/>
    <rect x="8" y="13" width="1" height="1" fill="#a0b720"/>
    <rect x="9" y="13" width="1" height="1" fill="#abbf39"/>
    <rect x="10" y="13" width="1" height="1" fill="#f0f3db"/>
    <rect x="11" y="13" width="5" height="1" fill="#ffffff"/>
    <rect x="0" y="14" width="1" height="1" fill="#ffffff"/>
    <rect x="1" y="14" width="1" height="1" fill="#d9e2a6"/>
    <rect x="2" y="14" width="1" height="1" fill="#9fb621"/>
    <rect x="3" y="14" width="5" height="1" fill="#9eb51e"/>
    <rect x="8" y="14" width="1" height="1" fill="#adc141"/>
    <rect x="9" y="14" width="1" height="1" fill="#f3f6e4"/>
    <rect x="10" y="14" width="6" height="1" fill="#ffffff"/>
    <rect x="0" y="15" width="1" height="1" fill="#d1dc94"/>
    <rect x="1" y="15" width="1" height="1" fill="#9db41d"/>
    <rect x="2" y="15" width="5" height="1" fill="#9db41c"/>
    <rect x="7" y="15" width="1" height="1" fill="#b1c349"/>
    <rect x="8" y="15" width="1" height="1" fill="#f7f9ec"/>
    <rect x="9" y="15" width="7" height="1" fill="#ffffff"/>
  </g>
</svg>
