<svg xmlns="http://www.w3.org/2000/svg" width="16" height="16" viewBox="0 0 16 16" role="img" aria-labelledby="dMeasurementCategory-title">
  <title id="dMeasurementCategory-title">dMeasurementCategory DAF stereotype</title>
  <g shape-rendering="crispEdges">
    <rect x="0" y="0" width="16" height="1" fill="#ffffff"/>
    <rect x="0" y="1" width="5" height="1" fill="#e0e080"/>
    <rect x="5" y="1" width="11" height="1" fill="#ffffff"/>
    <rect x="0" y="2" width="5" height="2" fill="#c0e040"/>
    <rect x="5" y="2" width="1" height="2" fill="#fffbf0"/>
    <rect x="6" y="2" width="10" height="2" fill="#ffffff"/>
    <rect x="0" y="4" width="1" height="1" fill="#c0dcc0"/>
    <rect x="1" y="4" width="1" height="1" fill="#e0e080"/>
    <rect x="2" y="4" width="1" height="1" fill="#c0e080"/>
    <rect x="3" y="4" width="2" height="1" fill="#c0dcc0"/>
    <rect x="5" y="4" width="11" height="1" fill="#ffffff"/>
    <rect x="0" y="5" width="1" height="10" fill="#ffffff"/>
    <rect x="1" y="5" width="1" height="9" fill="#c0dcc0"/>
    <rect x="2" y="5" width="1" height="3" fill="#e0e080"/>
    <rect x="3" y="5" width="13" height="1" fill="#ffffff"/>
    <rect x="3" y="6" width="1" height="2" fill="#ffffff"/>
    <rect x="4" y="6" width="12" height="1" fill="#fffbf0"/>
    <rect x="4" y="7" width="1" height="1" fill="#c0e040"/>
    <rect x="5" y="7" width="10" height="1" fill="#e0e080"/>
    <rect x="15" y="7" width="1" height="3" fill="#c0e040"/>
    <rect x="2" y="8" width="1" height="1" fill="#c0e040"/>
    <rect x="3" y="8" width="1" height="1" fill="#e0e080"/>
    <rect x="4" y="8" width="1" height="3" fill="#c0e080"/>
    <rect x="5" y="8" width="1" height="2" fill="#e0e080"/>
    <rect x="6" y="8" width="1" height="2" fill="#c0dcc0"/>
    <rect x="7" y="8" width="2" height="1" fill="#ffffff"/>
    <rect x="9" y="8" width="1" height="1" fill="#e0e080"/>
    <rect x="10" y="8" width="1" height="1" fill="#c0dcc0"/>
    <rect x="11" y="8" width="2" height="1" fill="#ffffff"/>
    <rect x="13" y="8" width="1" height="1" fill="#c0dcc0"/>
    <rect x="14" y="8" width="1" height="1" fill="#e0e080"/>
    <rect x="2" y="9" width="1" height="1" fill="#c0e080"/>
    <rect x="3" y="9" width="1" height="1" fill="#fffbf0"/>
    <rect x="7" y="9" width="1" height="1" fill="#e0e080"/>
    <rect x="8" y="9" width="1" height="1" fill="#c0dcc0"/>
    <rect x="9" y="9" width="6" height="1" fill="#e0e080"/>
    <rect x="2" y="10" width="1" height="3" fill="#e0e080"/>
    <rect x="3" y="10" width="1" height="1" fill="#ffffff"/>
    <rect x="5" y="10" width="10" height="1" fill="#c0e040"/>
    <rect x="15" y="10" width="1" height="1" fill="#c0e080"/>
    <rect x="3" y="11" width="13" height="1" fill="#ffffff"/>
    <rect x="3" y="12" width="1" height="1" fill="#ffffff"/>
    <rect x="4" y="12" width="12" height="1" fill="#c0e040"/>
    <rect x="2" y="13" width="1" height="1" fill="#c0e040"/>
    <rect x="3" y="13" width="1" height="1" fill="#e0e080"/>
    <rect x="4" y="13" width="1" height="2" fill="#c0e040"/>
    <rect x="5" y="13" width="1" height="1" fill="#c0dcc0"/>
    <rect x="6" y="13" width="1" height="1" fill="#fffbf0"/>
    <rect x="7" y="13" width="2" height="1" fill="#ffffff"/>
    <rect x="9" y="13" width="2" height="1" fill="#c0dcc0"/>
    <rect x="11" y="13" width="2" height="1" fill="#ffffff"/>
    <rect x="13" y="13" width="1" height="1" fill="#fffbf0"/>
    <rect x="14" y="13" width="1" height="1" fill="#c0dcc0"/>
    <rect x="15" y="13" width="1" height="2" fill="#c0e080"/>
    <rect x="1" y="14" width="1" height="1" fill="#fffbf0"/>
    <rect x="2" y="14" width="2" height="1" fill="#e0e080"/>
    <rect x="5" y="14" width="1" height="1" fill="#e0e080"/>
    <rect x="6" y="14" width="3" height="1" fill="#c0dcc0"/>
    <rect x="9" y="14" width="2" height="1" fill="#e0e080"/>
    <rect x="11" y="14" width="3" height="1" fill="#c0dcc0"/>
    <rect x="14" y="14" width="1" height="1" fill="#e0e080"/>
    <rect x="0" y="15" width="4" height="1" fill="#ffffff"/>
    <rect x="4" y="15" width="12" height="1" fill="#c0e040"/>
  </g>
</svg>
