<svg xmlns="http://www.w3.org/2000/svg" width="16" height="16" viewBox="0 0 16 16" role="img" aria-labelledby="dMeasurementGrouping-title">
  <title id="dMeasurementGrouping-title">dMeasurementGrouping DAF stereotype</title>
  <g shape-rendering="crispEdges">
    <rect x="0" y="0" width="16" height="1" fill="#ffffff"/>
    <rect x="0" y="1" width="16" height="1" fill="#e0e080"/>
    <rect x="0" y="2" width="1" height="13" fill="#c0e040"/>
    <rect x="1" y="2" width="1" height="1" fill="#c0e080"/>
    <rect x="2" y="2" width="13" height="1" fill="#e0e080"/>
    <rect x="15" y="2" width="1" height="13" fill="#c0e040"/>
    <rect x="1" y="3" width="1" height="2" fill="#fffbf0"/>
    <rect x="2" y="3" width="12" height="1" fill="#ffffff"/>
    <rect x="14" y="3" width="1" height="7" fill="#fffbf0"/>
    <rect x="2" y="4" width="1" height="1" fill="#6040c0"/>
    <rect x="3" y="4" width="10" height="1" fill="#6060c0"/>
    <rect x="13" y="4" width="1" height="1" fill="#6040c0"/>
    <rect x="1" y="5" width="1" height="2" fill="#c0dcc0"/>
    <rect x="2" y="5" width="1" height="2" fill="#6060c0"/>
    <rect x="3" y="5" width="2" height="1" fill="#a6caf0"/>
    <rect x="5" y="5" width="2" height="1" fill="#ffffff"/>
    <rect x="7" y="5" width="2" height="1" fill="#a6caf0"/>
    <rect x="9" y="5" width="2" height="1" fill="#ffffff"/>
    <rect x="11" y="5" width="2" height="1" fill="#a6caf0"/>
    <rect x="13" y="5" width="1" height="2" fill="#6060c0"/>
    <rect x="3" y="6" width="1" height="1" fill="#8080c0"/>
    <rect x="4" y="6" width="3" height="1" fill="#a6caf0"/>
    <rect x="7" y="6" width="1" height="1" fill="#a080c0"/>
    <rect x="8" y="6" width="4" height="1" fill="#a6caf0"/>
    <rect x="12" y="6" width="1" height="1" fill="#a080c0"/>
    <rect x="1" y="7" width="1" height="6" fill="#fffbf0"/>
    <rect x="2" y="7" width="12" height="1" fill="#6040c0"/>
    <rect x="2" y="8" width="12" height="1" fill="#ffffff"/>
    <rect x="2" y="9" width="1" height="1" fill="#c0dcc0"/>
    <rect x="3" y="9" width="11" height="1" fill="#e0e080"/>
    <rect x="2" y="10" width="1" height="3" fill="#c0e040"/>
    <rect x="3" y="10" width="2" height="1" fill="#c0dcc0"/>
    <rect x="5" y="10" width="2" height="2" fill="#fffbf0"/>
    <rect x="7" y="10" width="2" height="1" fill="#c0dcc0"/>
    <rect x="9" y="10" width="2" height="1" fill="#fffbf0"/>
    <rect x="11" y="10" width="1" height="1" fill="#c0dcc0"/>
    <rect x="12" y="10" width="1" height="1" fill="#e0e080"/>
    <rect x="13" y="10" width="1" height="1" fill="#c0e080"/>
    <rect x="14" y="10" width="1" height="3" fill="#c0dcc0"/>
    <rect x="3" y="11" width="1" height="1" fill="#c0dcc0"/>
    <rect x="4" y="11" width="1" height="1" fill="#e0e080"/>
    <rect x="7" y="11" width="1" height="1" fill="#c0dcc0"/>
    <rect x="8" y="11" width="1" height="1" fill="#e0e080"/>
    <rect x="9" y="11" width="3" height="1" fill="#fffbf0"/>
    <rect x="12" y="11" width="1" height="1" fill="#c0e080"/>
    <rect x="13" y="11" width="1" height="1" fill="#e0e080"/>
    <rect x="3" y="12" width="9" height="1" fill="#e0e080"/>
    <rect x="12" y="12" width="2" height="1" fill="#c0e080"/>
    <rect x="1" y="13" width="2" height="1" fill="#fffbf0"/>
    <rect x="3" y="13" width="11" height="1" fill="#c0dcc0"/>
    <rect x="14" y="13" width="1" height="1" fill="#fffbf0"/>
    <rect x="1" y="14" width="14" height="1" fill="#e0e080"/>
    <rect x="0" y="15" width="1" height="1" fill="#e0e080"/>
    <rect x="1" y="15" width="14" height="1" fill="#c0e080"/>
    <rect x="15" y="15" width="1" height="1" fill="#e0e080"/>
  </g>
</svg>
