<?xml version="1.0" encoding="UTF-8" standalone="no"?>
<!-- Generator: Adobe Illustrator 16.0.0, SVG Export Plug-In . SVG Version: 6.00 Build 0)  -->

<svg
   xmlns:dc="http://purl.org/dc/elements/1.1/"
   xmlns:cc="http://creativecommons.org/ns#"
   xmlns:rdf="http://www.w3.org/1999/02/22-rdf-syntax-ns#"
   xmlns:svg="http://www.w3.org/2000/svg"
   xmlns="http://www.w3.org/2000/svg"
   xmlns:sodipodi="http://sodipodi.sourceforge.net/DTD/sodipodi-0.dtd"
   xmlns:inkscape="http://www.inkscape.org/namespaces/inkscape"
   version="1.1"
   id="Capa_1"
   x="0px"
   y="0px"
   width="16"
   height="16"
   viewBox="0 0 16 16"
   xml:space="preserve"
   inkscape:version="0.91 r13725"
   sodipodi:docname="dObject.svg"><metadata
     id="metadata61"><rdf:RDF><cc:Work
         rdf:about=""><dc:format>image/svg+xml</dc:format><dc:type
           rdf:resource="http://purl.org/dc/dcmitype/StillImage" /><dc:title></dc:title></cc:Work></rdf:RDF></metadata><defs
     id="defs59" /><sodipodi:namedview
     pagecolor="#ffffff"
     bordercolor="#666666"
     borderopacity="1"
     objecttolerance="10"
     gridtolerance="10"
     guidetolerance="10"
     inkscape:pageopacity="0"
     inkscape:pageshadow="2"
     inkscape:window-width="1366"
     inkscape:window-height="706"
     id="namedview57"
     showgrid="false"
     inkscape:zoom="33.5625"
     inkscape:cx="9.0431079"
     inkscape:cy="7.9506752"
     inkscape:window-x="-8"
     inkscape:window-y="-8"
     inkscape:window-maximized="1"
     inkscape:current-layer="Capa_1" /><path
     d="m 7.3919259,0.23000186 0,1.36140294 -6.41292807,0 c 0,0 -0.3941354,0 -0.3941354,0.3403509 0,0.3403506 0.3941354,0.3403506 0.3941354,0.3403506 l 14.18728417,0 c 0,0 0.394111,0 0.394111,-0.3403506 0,-0.3403509 -0.394111,-0.3403509 -0.394111,-0.3403509 l -6.4129529,0 0,-1.36140294 -1.3614032,0 z"
     id="path7"
     inkscape:connector-curvature="0"
     style="fill:#bbd337;fill-opacity:1;stroke:#bbd337;stroke-width:0.02446982;stroke-opacity:1" /><rect
     x="3.9883945"
     y="9.0791941"
     width="0.68070143"
     height="0.68067694"
     id="rect9"
     style="fill:#bbd337;fill-opacity:1;stroke:#bbd337;stroke-width:0.02446982;stroke-opacity:1" /><rect
     x="5.3497968"
     y="11.121298"
     width="6.1263618"
     height="0.68070149"
     id="rect11"
     style="fill:#bbd337;fill-opacity:1;stroke:#bbd337;stroke-width:0.02446982;stroke-opacity:1" /><rect
     x="3.9883945"
     y="11.121298"
     width="0.68070143"
     height="0.68070149"
     id="rect13"
     style="fill:#bbd337;fill-opacity:1;stroke:#bbd337;stroke-width:0.02446982;stroke-opacity:1" /><rect
     x="3.9883945"
     y="7.0370655"
     width="0.68070143"
     height="0.68070149"
     id="rect15"
     style="fill:#bbd337;fill-opacity:1;stroke:#bbd337;stroke-width:0.02446982;stroke-opacity:1" /><path
     d="m 2.8672605,2.952808 c 0,0 -1.6016966,0 -1.6016966,1.5561091 l 0,7.7797879 c 0,1.5554 1.6016966,1.5554 1.6016966,1.5554 l 10.4107105,0 c 0,0 1.601696,0 1.601696,-1.556085 l 0,-7.7791029 c 0,-1.5561091 -1.601696,-1.5561091 -1.601696,-1.5561091 l -10.4107105,0 z m 11.3317045,1.4751142 0,7.9418028 c 0,0.793727 -0.816851,0.793727 -0.816851,0.793727 l -10.6189971,0 c 0,0 -0.8168516,0 -0.8168516,-0.794388 l 0,-7.9411418 c 0,-0.7943883 0.8168516,-0.7943883 0.8168516,-0.7943883 l 10.6189971,0 c 0,0 0.816851,0 0.816851,0.7943883 z"
     id="path17"
     inkscape:connector-curvature="0"
     style="fill:#bbd337;fill-opacity:1;stroke:#bbd337;stroke-width:0.02446982;stroke-opacity:1" /><path
     d="m 0.97899783,15.205532 14.18728417,0 c 0,0 0.394111,0 0.394111,-0.340351 0,-0.34035 -0.394111,-0.34035 -0.394111,-0.34035 l -14.18728417,0 c 0,0 -0.3941354,0 -0.3941354,0.34035 0,0.340351 0.3941354,0.340351 0.3941354,0.340351 z"
     id="path19"
     inkscape:connector-curvature="0"
     style="fill:#bbd337;fill-opacity:1;stroke:#bbd337;stroke-width:0.02446982;stroke-opacity:1" /><rect
     x="5.3497968"
     y="9.0791941"
     width="6.1263618"
     height="0.68067694"
     id="rect21"
     style="fill:#bbd337;fill-opacity:1;stroke:#bbd337;stroke-width:0.02446982;stroke-opacity:1" /><rect
     x="5.3497968"
     y="7.0370655"
     width="6.1263618"
     height="0.68070149"
     id="rect23"
     style="fill:#bbd337;fill-opacity:1;stroke:#bbd337;stroke-width:0.02446982;stroke-opacity:1" /><rect
     x="3.3076935"
     y="4.9949608"
     width="9.5298939"
     height="0.68070149"
     id="rect25"
     style="fill:#bbd337;fill-opacity:1;stroke:#bbd337;stroke-width:0.02446982;stroke-opacity:1" /><g
     id="g27"
     style="fill:#bbd337;fill-opacity:1;stroke:#bbd337;stroke-opacity:1"
     transform="matrix(0.02446982,0,0,0.02446982,-0.48776331,-1.0175294)" /><g
     id="g29"
     style="fill:#bbd337;fill-opacity:1;stroke:#bbd337;stroke-opacity:1"
     transform="matrix(0.02446982,0,0,0.02446982,-0.48776331,-1.0175294)" /><g
     id="g31"
     style="fill:#bbd337;fill-opacity:1;stroke:#bbd337;stroke-opacity:1"
     transform="matrix(0.02446982,0,0,0.02446982,-0.48776331,-1.0175294)" /><g
     id="g33"
     style="fill:#bbd337;fill-opacity:1;stroke:#bbd337;stroke-opacity:1"
     transform="matrix(0.02446982,0,0,0.02446982,-0.48776331,-1.0175294)" /><g
     id="g35"
     style="fill:#bbd337;fill-opacity:1;stroke:#bbd337;stroke-opacity:1"
     transform="matrix(0.02446982,0,0,0.02446982,-0.48776331,-1.0175294)" /><g
     id="g37"
     style="fill:#bbd337;fill-opacity:1;stroke:#bbd337;stroke-opacity:1"
     transform="matrix(0.02446982,0,0,0.02446982,-0.48776331,-1.0175294)" /><g
     id="g39"
     style="fill:#bbd337;fill-opacity:1;stroke:#bbd337;stroke-opacity:1"
     transform="matrix(0.02446982,0,0,0.02446982,-0.48776331,-1.0175294)" /><g
     id="g41"
     style="fill:#bbd337;fill-opacity:1;stroke:#bbd337;stroke-opacity:1"
     transform="matrix(0.02446982,0,0,0.02446982,-0.48776331,-1.0175294)" /><g
     id="g43"
     style="fill:#bbd337;fill-opacity:1;stroke:#bbd337;stroke-opacity:1"
     transform="matrix(0.02446982,0,0,0.02446982,-0.48776331,-1.0175294)" /><g
     id="g45"
     style="fill:#bbd337;fill-opacity:1;stroke:#bbd337;stroke-opacity:1"
     transform="matrix(0.02446982,0,0,0.02446982,-0.48776331,-1.0175294)" /><g
     id="g47"
     style="fill:#bbd337;fill-opacity:1;stroke:#bbd337;stroke-opacity:1"
     transform="matrix(0.02446982,0,0,0.02446982,-0.48776331,-1.0175294)" /><g
     id="g49"
     style="fill:#bbd337;fill-opacity:1;stroke:#bbd337;stroke-opacity:1"
     transform="matrix(0.02446982,0,0,0.02446982,-0.48776331,-1.0175294)" /><g
     id="g51"
     style="fill:#bbd337;fill-opacity:1;stroke:#bbd337;stroke-opacity:1"
     transform="matrix(0.02446982,0,0,0.02446982,-0.48776331,-1.0175294)" /><g
     id="g53"
     style="fill:#bbd337;fill-opacity:1;stroke:#bbd337;stroke-opacity:1"
     transform="matrix(0.02446982,0,0,0.02446982,-0.48776331,-1.0175294)" /><g
     id="g55"
     style="fill:#bbd337;fill-opacity:1;stroke:#bbd337;stroke-opacity:1"
     transform="matrix(0.02446982,0,0,0.02446982,-0.48776331,-1.0175294)" /></svg>