<?xml version="1.0" encoding="UTF-8" standalone="no"?>
<!-- Generator: Adobe Illustrator 16.0.0, SVG Export Plug-In . SVG Version: 6.00 Build 0)  -->

<svg
   xmlns:dc="http://purl.org/dc/elements/1.1/"
   xmlns:cc="http://creativecommons.org/ns#"
   xmlns:rdf="http://www.w3.org/1999/02/22-rdf-syntax-ns#"
   xmlns:svg="http://www.w3.org/2000/svg"
   xmlns="http://www.w3.org/2000/svg"
   xmlns:sodipodi="http://sodipodi.sourceforge.net/DTD/sodipodi-0.dtd"
   xmlns:inkscape="http://www.inkscape.org/namespaces/inkscape"
   version="1.1"
   id="Capa_1"
   x="0px"
   y="0px"
   width="16"
   height="16"
   viewBox="0 0 15.999999 15.999999"
   xml:space="preserve"
   inkscape:version="0.91 r13725"
   sodipodi:docname="dObjective.svg"><metadata
     id="metadata43"><rdf:RDF><cc:Work
         rdf:about=""><dc:format>image/svg+xml</dc:format><dc:type
           rdf:resource="http://purl.org/dc/dcmitype/StillImage" /><dc:title></dc:title></cc:Work></rdf:RDF></metadata><defs
     id="defs41" /><sodipodi:namedview
     pagecolor="#ffffff"
     bordercolor="#666666"
     borderopacity="1"
     objecttolerance="10"
     gridtolerance="10"
     guidetolerance="10"
     inkscape:pageopacity="0"
     inkscape:pageshadow="2"
     inkscape:window-width="1366"
     inkscape:window-height="706"
     id="namedview39"
     showgrid="false"
     inkscape:zoom="33.5625"
     inkscape:cx="8"
     inkscape:cy="8"
     inkscape:window-x="-8"
     inkscape:window-y="-8"
     inkscape:window-maximized="1"
     inkscape:current-layer="Capa_1" /><g
     id="g3"
     style="fill:#bbd337;fill-opacity:1;stroke:#bbd337;stroke-opacity:1"
     transform="matrix(0.02647106,0,0,0.02617314,0.55083586,0.5922961)"><g
       id="g5"
       style="fill:#bbd337;fill-opacity:1;stroke:#bbd337;stroke-opacity:1"><path
         d="m 538.411,254.964 -23.299,0 C 502.132,148.945 417.963,64.777 311.952,51.806 l 0,-23.301 C 311.952,12.758 299.194,0 283.448,0 267.701,0 254.943,12.758 254.943,28.505 l 0,23.299 c -106,12.991 -190.15,97.139 -203.141,203.141 l -23.297,0 C 12.768,254.946 0,267.705 0,283.452 c 0,15.735 12.758,28.505 28.505,28.505 l 23.299,0 c 12.97,106.008 97.13,190.168 203.141,203.158 l 0,23.297 c 0,15.748 12.758,28.506 28.505,28.506 15.745,0 28.504,-12.758 28.504,-28.506 l 0,-23.297 c 106.011,-12.972 190.18,-97.131 203.16,-203.144 l 23.299,0 c 15.736,0 28.505,-12.756 28.505,-28.504 -0.002,-15.735 -12.761,-28.503 -28.507,-28.503 z m -80.9,0 -73.19,-0.006 c -9.863,-34.992 -37.375,-62.493 -72.365,-72.367 l 0,-73.183 c 74.516,12.166 133.382,71.031 145.555,145.556 z m -202.566,-145.546 0,73.179 c -34.98,9.874 -62.483,37.375 -72.347,72.359 l -73.193,-0.01 c 12.183,-74.507 71.031,-133.353 145.54,-145.528 z m -145.538,202.54 73.193,0.008 c 9.861,34.98 37.365,62.48 72.347,72.357 l 0,73.18 C 180.426,445.33 121.58,386.476 109.407,311.958 Z m 202.545,145.555 0,-73.182 c 34.99,-9.873 62.494,-37.375 72.365,-72.365 l 73.19,0.008 c -12.169,74.518 -71.026,133.373 -145.555,145.539 z"
         id="path7"
         style="fill:#bbd337;fill-opacity:1;stroke:#bbd337;stroke-opacity:1"
         inkscape:connector-curvature="0" /></g></g><g
     id="g9"
     style="fill:#bbd337;fill-opacity:1;stroke:#bbd337;stroke-opacity:1"
     transform="translate(0,-550.91803)" /><g
     id="g11"
     style="fill:#bbd337;fill-opacity:1;stroke:#bbd337;stroke-opacity:1"
     transform="translate(0,-550.91803)" /><g
     id="g13"
     style="fill:#bbd337;fill-opacity:1;stroke:#bbd337;stroke-opacity:1"
     transform="translate(0,-550.91803)" /><g
     id="g15"
     style="fill:#bbd337;fill-opacity:1;stroke:#bbd337;stroke-opacity:1"
     transform="translate(0,-550.91803)" /><g
     id="g17"
     style="fill:#bbd337;fill-opacity:1;stroke:#bbd337;stroke-opacity:1"
     transform="translate(0,-550.91803)" /><g
     id="g19"
     style="fill:#bbd337;fill-opacity:1;stroke:#bbd337;stroke-opacity:1"
     transform="translate(0,-550.91803)" /><g
     id="g21"
     style="fill:#bbd337;fill-opacity:1;stroke:#bbd337;stroke-opacity:1"
     transform="translate(0,-550.91803)" /><g
     id="g23"
     style="fill:#bbd337;fill-opacity:1;stroke:#bbd337;stroke-opacity:1"
     transform="translate(0,-550.91803)" /><g
     id="g25"
     style="fill:#bbd337;fill-opacity:1;stroke:#bbd337;stroke-opacity:1"
     transform="translate(0,-550.91803)" /><g
     id="g27"
     style="fill:#bbd337;fill-opacity:1;stroke:#bbd337;stroke-opacity:1"
     transform="translate(0,-550.91803)" /><g
     id="g29"
     style="fill:#bbd337;fill-opacity:1;stroke:#bbd337;stroke-opacity:1"
     transform="translate(0,-550.91803)" /><g
     id="g31"
     style="fill:#bbd337;fill-opacity:1;stroke:#bbd337;stroke-opacity:1"
     transform="translate(0,-550.91803)" /><g
     id="g33"
     style="fill:#bbd337;fill-opacity:1;stroke:#bbd337;stroke-opacity:1"
     transform="translate(0,-550.91803)" /><g
     id="g35"
     style="fill:#bbd337;fill-opacity:1;stroke:#bbd337;stroke-opacity:1"
     transform="translate(0,-550.91803)" /><g
     id="g37"
     style="fill:#bbd337;fill-opacity:1;stroke:#bbd337;stroke-opacity:1"
     transform="translate(0,-550.91803)" /></svg>