<?xml version="1.0" encoding="UTF-8" standalone="no"?>
<!-- Generator: Adobe Illustrator 18.1.1, SVG Export Plug-In . SVG Version: 6.00 Build 0)  -->

<svg
   xmlns:dc="http://purl.org/dc/elements/1.1/"
   xmlns:cc="http://creativecommons.org/ns#"
   xmlns:rdf="http://www.w3.org/1999/02/22-rdf-syntax-ns#"
   xmlns:svg="http://www.w3.org/2000/svg"
   xmlns="http://www.w3.org/2000/svg"
   xmlns:sodipodi="http://sodipodi.sourceforge.net/DTD/sodipodi-0.dtd"
   xmlns:inkscape="http://www.inkscape.org/namespaces/inkscape"
   version="1.1"
   id="Capa_1"
   x="0px"
   y="0px"
   viewBox="0 0 525.325 525.325"
   style="enable-background:new 0 0 525.325 525.325;"
   xml:space="preserve"
   inkscape:version="0.91 r13725"
   sodipodi:docname="dProduct1.svg"><metadata
     id="metadata41"><rdf:RDF><cc:Work
         rdf:about=""><dc:format>image/svg+xml</dc:format><dc:type
           rdf:resource="http://purl.org/dc/dcmitype/StillImage" /></cc:Work></rdf:RDF></metadata><defs
     id="defs39" /><sodipodi:namedview
     pagecolor="#ffffff"
     bordercolor="#666666"
     borderopacity="1"
     objecttolerance="10"
     gridtolerance="10"
     guidetolerance="10"
     inkscape:pageopacity="0"
     inkscape:pageshadow="2"
     inkscape:window-width="1366"
     inkscape:window-height="706"
     id="namedview37"
     showgrid="false"
     inkscape:zoom="0.63532935"
     inkscape:cx="223.60856"
     inkscape:cy="273.89346"
     inkscape:window-x="-8"
     inkscape:window-y="-8"
     inkscape:window-maximized="1"
     inkscape:current-layer="Capa_1" /><g
     id="g3"
     style="stroke:#4730ff;stroke-opacity:1;fill:#4730ff;fill-opacity:1"><path
       style="fill:#4730ff;stroke:#4730ff;stroke-opacity:1;fill-opacity:1"
       d="M494.23,89.943L265.622,0.528c-0.382-0.154-0.772-0.114-1.162-0.203   C263.858,0.179,263.272,0,262.646,0c-0.65,0-1.244,0.179-1.861,0.333c-0.366,0.089-0.732,0.057-1.089,0.195l-0.309,0.122l0,0   L31.08,89.943c-3.804,1.496-5.706,5.527-4.804,9.397c-0.219,0.732-0.358,1.496-0.358,2.284v293.645c0,2.999,1.658,5.763,4.3,7.178   l228.616,121.929c0.374,0.195,0.772,0.309,1.162,0.447c0.203,0.073,0.398,0.171,0.61,0.228c0.675,0.171,1.366,0.276,2.057,0.276   s1.382-0.106,2.057-0.276c0.211-0.057,0.406-0.163,0.61-0.228c0.39-0.138,0.788-0.244,1.162-0.447l228.616-121.929   c2.65-1.414,4.3-4.178,4.3-7.178V101.623c0-0.788-0.146-1.544-0.358-2.284C499.944,95.478,498.042,91.438,494.23,89.943z    M262.655,198.345L49.946,100.022l212.717-83.188l212.709,83.188L262.655,198.345z M42.167,114.345l212.359,98.153v291.149   L42.167,390.399V114.345z M483.142,390.399L270.783,503.647V212.497l212.359-98.153V390.399z"
       id="path5" /></g><g
     id="g7" /><g
     id="g9" /><g
     id="g11" /><g
     id="g13" /><g
     id="g15" /><g
     id="g17" /><g
     id="g19" /><g
     id="g21" /><g
     id="g23" /><g
     id="g25" /><g
     id="g27" /><g
     id="g29" /><g
     id="g31" /><g
     id="g33" /><g
     id="g35" /></svg>