<svg xmlns="http://www.w3.org/2000/svg" width="16" height="16" viewBox="0 0 16 16" role="img" aria-labelledby="dProgram-title">
  <title id="dProgram-title">dProgram DAF stereotype</title>
  <g shape-rendering="crispEdges">
    <rect x="0" y="0" width="12" height="1" fill="#22b14c"/>
    <rect x="12" y="0" width="4" height="3" fill="#ffffff"/>
    <rect x="0" y="1" width="1" height="2" fill="#22b14c"/>
    <rect x="1" y="1" width="10" height="2" fill="#ffffff"/>
    <rect x="11" y="1" width="1" height="2" fill="#22b14c"/>
    <rect x="0" y="3" width="16" height="1" fill="#22b14c"/>
    <rect x="0" y="4" width="1" height="11" fill="#22b14c"/>
    <rect x="1" y="4" width="14" height="1" fill="#ffffff"/>
    <rect x="15" y="4" width="1" height="11" fill="#22b14c"/>
    <rect x="1" y="5" width="7" height="1" fill="#ffffff"/>
    <rect x="8" y="5" width="1" height="1" fill="#afafaf"/>
    <rect x="9" y="5" width="1" height="1" fill="#818181"/>
    <rect x="10" y="5" width="1" height="1" fill="#d1d1d1"/>
    <rect x="11" y="5" width="4" height="1" fill="#ffffff"/>
    <rect x="1" y="6" width="6" height="1" fill="#ffffff"/>
    <rect x="7" y="6" width="1" height="1" fill="#f0f0f0"/>
    <rect x="8" y="6" width="1" height="1" fill="#4f4f4f"/>
    <rect x="9" y="6" width="1" height="1" fill="#f5f5f5"/>
    <rect x="10" y="6" width="1" height="1" fill="#3d3d3d"/>
    <rect x="11" y="6" width="1" height="1" fill="#fdfdfd"/>
    <rect x="12" y="6" width="3" height="1" fill="#ffffff"/>
    <rect x="1" y="7" width="7" height="1" fill="#ffffff"/>
    <rect x="8" y="7" width="1" height="1" fill="#5a5a5a"/>
    <rect x="9" y="7" width="1" height="1" fill="#cdcdcd"/>
    <rect x="10" y="7" width="5" height="1" fill="#ffffff"/>
    <rect x="1" y="8" width="6" height="1" fill="#ffffff"/>
    <rect x="7" y="8" width="1" height="1" fill="#7f7f7f"/>
    <rect x="8" y="8" width="1" height="1" fill="#aeaeae"/>
    <rect x="9" y="8" width="1" height="1" fill="#454545"/>
    <rect x="10" y="8" width="1" height="1" fill="#efefef"/>
    <rect x="11" y="8" width="4" height="4" fill="#ffffff"/>
    <rect x="1" y="9" width="5" height="3" fill="#ffffff"/>
    <rect x="6" y="9" width="1" height="1" fill="#a9a9a9"/>
    <rect x="7" y="9" width="1" height="1" fill="#848484"/>
    <rect x="8" y="9" width="1" height="2" fill="#ffffff"/>
    <rect x="9" y="9" width="1" height="1" fill="#828282"/>
    <rect x="10" y="9" width="1" height="1" fill="#9d9d9d"/>
    <rect x="6" y="10" width="1" height="1" fill="#676767"/>
    <rect x="7" y="10" width="1" height="1" fill="#bdbdbd"/>
    <rect x="9" y="10" width="1" height="1" fill="#737373"/>
    <rect x="10" y="10" width="1" height="1" fill="#a6a6a6"/>
    <rect x="6" y="11" width="1" height="1" fill="#989898"/>
    <rect x="7" y="11" width="1" height="1" fill="#686868"/>
    <rect x="8" y="11" width="1" height="1" fill="#adadad"/>
    <rect x="9" y="11" width="1" height="1" fill="#434343"/>
    <rect x="10" y="11" width="1" height="1" fill="#f7f7f7"/>
    <rect x="1" y="12" width="6" height="1" fill="#ffffff"/>
    <rect x="7" y="12" width="1" height="1" fill="#d5d5d5"/>
    <rect x="8" y="12" width="1" height="1" fill="#c3c3c3"/>
    <rect x="9" y="12" width="6" height="1" fill="#ffffff"/>
    <rect x="1" y="13" width="14" height="2" fill="#ffffff"/>
    <rect x="0" y="15" width="16" height="1" fill="#22b14c"/>
  </g>
</svg>
