<?xml version="1.0" encoding="iso-8859-1"?>
<!-- Generator: Adobe Illustrator 19.0.0, SVG Export Plug-In . SVG Version: 6.00 Build 0)  -->
<svg version="1.1" id="Capa_1" xmlns="http://www.w3.org/2000/svg" xmlns:xlink="http://www.w3.org/1999/xlink" x="0px" y="0px"
	 viewBox="0 0 320 320" style="enable-background:new 0 0 320 320;" xml:space="preserve">
<g id="XMLID_474_">
	<path id="XMLID_475_" style="fill:#006DF0;" d="M290,160c0-10.177-1.172-20.079-3.383-29.583l27.948-22.705l-32-55.426
		l-33.673,12.865c-14.385-13.488-31.838-23.739-51.203-29.596L192,0h-64l-5.689,35.556c-19.364,5.857-36.817,16.108-51.203,29.596
		L37.436,52.287l-32,55.426l27.948,22.705C31.172,139.921,30,149.823,30,160s1.172,20.079,3.383,29.583L5.436,212.288l32,55.425
		l33.672-12.865c14.386,13.488,31.839,23.739,51.203,29.596L128,320l64,0l5.689-35.557c19.364-5.857,36.817-16.108,51.203-29.596
		l33.672,12.865l32-55.426l-27.948-22.705C288.828,180.079,290,170.177,290,160z"/>
	<path id="XMLID_476_" style="fill:#0052B4;" d="M160,0h-32l-5.689,35.556c-19.364,5.857-36.817,16.108-51.203,29.596L37.436,52.287
		l-32,55.426l27.948,22.705C31.172,139.921,30,149.823,30,160s1.172,20.079,3.383,29.583L5.436,212.288l32,55.425l33.672-12.865
		c14.386,13.488,31.839,23.739,51.203,29.596L128,320h32V0z"/>
	<circle id="XMLID_477_" style="fill:#FFFFFF;" cx="160" cy="160" r="95"/>
	<rect id="XMLID_478_" x="145" y="95" style="fill:#FFDA44;" width="30" height="80"/>
	<rect id="XMLID_3_" x="145" y="145" style="fill:#FF9811;" width="60" height="30"/>
</g>
<g>
</g>
<g>
</g>
<g>
</g>
<g>
</g>
<g>
</g>
<g>
</g>
<g>
</g>
<g>
</g>
<g>
</g>
<g>
</g>
<g>
</g>
<g>
</g>
<g>
</g>
<g>
</g>
<g>
</g>
</svg>
