<svg xmlns="http://www.w3.org/2000/svg" width="16" height="16" viewBox="0 0 16 16" role="img" aria-labelledby="dStakeHolder-title">
  <title id="dStakeHolder-title">dStakeHolder DAF stereotype</title>
  <g shape-rendering="crispEdges">
    <rect x="0" y="0" width="7" height="1" fill="#ffffff"/>
    <rect x="7" y="0" width="3" height="1" fill="#e0e080"/>
    <rect x="10" y="0" width="6" height="1" fill="#ffffff"/>
    <rect x="0" y="1" width="6" height="1" fill="#ffffff"/>
    <rect x="6" y="1" width="2" height="1" fill="#e0e080"/>
    <rect x="8" y="1" width="1" height="1" fill="#ffffff"/>
    <rect x="9" y="1" width="2" height="1" fill="#e0e080"/>
    <rect x="11" y="1" width="5" height="1" fill="#ffffff"/>
    <rect x="0" y="2" width="4" height="1" fill="#ffffff"/>
    <rect x="4" y="2" width="2" height="1" fill="#e0e080"/>
    <rect x="6" y="2" width="5" height="1" fill="#ffffff"/>
    <rect x="11" y="2" width="1" height="1" fill="#e0e080"/>
    <rect x="12" y="2" width="4" height="1" fill="#ffffff"/>
    <rect x="0" y="3" width="3" height="1" fill="#ffffff"/>
    <rect x="3" y="3" width="1" height="1" fill="#e0e080"/>
    <rect x="4" y="3" width="3" height="1" fill="#ffffff"/>
    <rect x="7" y="3" width="2" height="1" fill="#e0e080"/>
    <rect x="9" y="3" width="3" height="1" fill="#ffffff"/>
    <rect x="12" y="3" width="1" height="1" fill="#e0e080"/>
    <rect x="13" y="3" width="3" height="1" fill="#ffffff"/>
    <rect x="0" y="4" width="2" height="7" fill="#ffffff"/>
    <rect x="2" y="4" width="1" height="3" fill="#e0e080"/>
    <rect x="3" y="4" width="3" height="3" fill="#ffffff"/>
    <rect x="6" y="4" width="1" height="2" fill="#e0e080"/>
    <rect x="7" y="4" width="2" height="2" fill="#ffffff"/>
    <rect x="9" y="4" width="1" height="1" fill="#e0e080"/>
    <rect x="10" y="4" width="3" height="1" fill="#ffffff"/>
    <rect x="13" y="4" width="1" height="1" fill="#e0e080"/>
    <rect x="14" y="4" width="2" height="1" fill="#ffffff"/>
    <rect x="9" y="5" width="1" height="1" fill="#c0dcc0"/>
    <rect x="10" y="5" width="4" height="2" fill="#ffffff"/>
    <rect x="14" y="5" width="1" height="5" fill="#e0e080"/>
    <rect x="15" y="5" width="1" height="5" fill="#ffffff"/>
    <rect x="6" y="6" width="1" height="2" fill="#c0dcc0"/>
    <rect x="7" y="6" width="1" height="1" fill="#e0e080"/>
    <rect x="8" y="6" width="1" height="1" fill="#c0dcc0"/>
    <rect x="9" y="6" width="1" height="1" fill="#e0e080"/>
    <rect x="2" y="7" width="1" height="1" fill="#c0dcc0"/>
    <rect x="3" y="7" width="2" height="1" fill="#ffffff"/>
    <rect x="5" y="7" width="1" height="1" fill="#e0e080"/>
    <rect x="7" y="7" width="2" height="1" fill="#404040"/>
    <rect x="9" y="7" width="2" height="1" fill="#c0dcc0"/>
    <rect x="11" y="7" width="3" height="1" fill="#ffffff"/>
    <rect x="2" y="8" width="1" height="1" fill="#e0e080"/>
    <rect x="3" y="8" width="1" height="1" fill="#ffffff"/>
    <rect x="4" y="8" width="1" height="1" fill="#e0e080"/>
    <rect x="5" y="8" width="2" height="1" fill="#ffffff"/>
    <rect x="7" y="8" width="1" height="1" fill="#202040"/>
    <rect x="8" y="8" width="1" height="1" fill="#404040"/>
    <rect x="9" y="8" width="1" height="1" fill="#ffffff"/>
    <rect x="10" y="8" width="2" height="1" fill="#e0e080"/>
    <rect x="12" y="8" width="2" height="1" fill="#ffffff"/>
    <rect x="2" y="9" width="2" height="1" fill="#e0e080"/>
    <rect x="4" y="9" width="3" height="1" fill="#ffffff"/>
    <rect x="7" y="9" width="2" height="1" fill="#202040"/>
    <rect x="9" y="9" width="3" height="1" fill="#ffffff"/>
    <rect x="12" y="9" width="1" height="1" fill="#e0e080"/>
    <rect x="13" y="9" width="1" height="1" fill="#ffffff"/>
    <rect x="2" y="10" width="1" height="1" fill="#c0dcc0"/>
    <rect x="3" y="10" width="4" height="1" fill="#ffffff"/>
    <rect x="7" y="10" width="2" height="2" fill="#000000"/>
    <rect x="9" y="10" width="4" height="1" fill="#ffffff"/>
    <rect x="13" y="10" width="1" height="1" fill="#e0e080"/>
    <rect x="14" y="10" width="2" height="1" fill="#ffffff"/>
    <rect x="0" y="11" width="3" height="1" fill="#ffffff"/>
    <rect x="3" y="11" width="1" height="1" fill="#e0e080"/>
    <rect x="4" y="11" width="3" height="1" fill="#ffffff"/>
    <rect x="9" y="11" width="3" height="1" fill="#ffffff"/>
    <rect x="12" y="11" width="1" height="1" fill="#e0e080"/>
    <rect x="13" y="11" width="3" height="1" fill="#ffffff"/>
    <rect x="0" y="12" width="4" height="1" fill="#ffffff"/>
    <rect x="4" y="12" width="1" height="1" fill="#e0e080"/>
    <rect x="5" y="12" width="1" height="1" fill="#c0dcc0"/>
    <rect x="6" y="12" width="5" height="1" fill="#ffffff"/>
    <rect x="11" y="12" width="1" height="1" fill="#e0e080"/>
    <rect x="12" y="12" width="4" height="1" fill="#ffffff"/>
    <rect x="0" y="13" width="6" height="1" fill="#ffffff"/>
    <rect x="6" y="13" width="5" height="1" fill="#e0e080"/>
    <rect x="11" y="13" width="5" height="1" fill="#ffffff"/>
    <rect x="0" y="14" width="16" height="2" fill="#ffffff"/>
  </g>
</svg>
