<svg xmlns="http://www.w3.org/2000/svg" width="16" height="16" viewBox="0 0 16 16" role="img" aria-labelledby="dTest-title">
  <title id="dTest-title">dTest DAF stereotype</title>
  <g shape-rendering="crispEdges">
    <rect x="0" y="0" width="1" height="1" fill="#313131"/>
    <rect x="1" y="0" width="2" height="1" fill="#292929"/>
    <rect x="3" y="0" width="10" height="1" fill="#282828"/>
    <rect x="13" y="0" width="1" height="1" fill="#292929"/>
    <rect x="14" y="0" width="1" height="1" fill="#232323"/>
    <rect x="15" y="0" width="1" height="1" fill="#737373"/>
    <rect x="0" y="1" width="1" height="14" fill="#000000"/>
    <rect x="1" y="1" width="13" height="1" fill="#ffffff"/>
    <rect x="14" y="1" width="1" height="1" fill="#b3b3b3"/>
    <rect x="15" y="1" width="1" height="1" fill="#292929"/>
    <rect x="1" y="2" width="4" height="1" fill="#ffffff"/>
    <rect x="5" y="2" width="1" height="1" fill="#fdfdfd"/>
    <rect x="6" y="2" width="1" height="1" fill="#1e1e1e"/>
    <rect x="7" y="2" width="7" height="2" fill="#ffffff"/>
    <rect x="14" y="2" width="1" height="1" fill="#adadad"/>
    <rect x="15" y="2" width="1" height="2" fill="#2e2e2e"/>
    <rect x="1" y="3" width="2" height="2" fill="#ffffff"/>
    <rect x="3" y="3" width="1" height="1" fill="#b3b3b3"/>
    <rect x="4" y="3" width="1" height="1" fill="#bbbbbb"/>
    <rect x="5" y="3" width="1" height="1" fill="#b0b0b0"/>
    <rect x="6" y="3" width="1" height="1" fill="#050505"/>
    <rect x="14" y="3" width="1" height="1" fill="#aeaeae"/>
    <rect x="3" y="4" width="1" height="1" fill="#7a7a7a"/>
    <rect x="4" y="4" width="1" height="1" fill="#0c0c0c"/>
    <rect x="5" y="4" width="1" height="1" fill="#000000"/>
    <rect x="6" y="4" width="1" height="1" fill="#7e7e7e"/>
    <rect x="7" y="4" width="1" height="1" fill="#6e6e6e"/>
    <rect x="8" y="4" width="1" height="1" fill="#3d3d3d"/>
    <rect x="9" y="4" width="3" height="1" fill="#414141"/>
    <rect x="12" y="4" width="1" height="1" fill="#3f3f3f"/>
    <rect x="13" y="4" width="1" height="1" fill="#535353"/>
    <rect x="14" y="4" width="1" height="2" fill="#b0b0b0"/>
    <rect x="15" y="4" width="1" height="1" fill="#2f2f2f"/>
    <rect x="1" y="5" width="4" height="1" fill="#ffffff"/>
    <rect x="5" y="5" width="1" height="1" fill="#767676"/>
    <rect x="6" y="5" width="1" height="1" fill="#efefef"/>
    <rect x="7" y="5" width="1" height="1" fill="#ececec"/>
    <rect x="8" y="5" width="1" height="1" fill="#dbdbdb"/>
    <rect x="9" y="5" width="3" height="1" fill="#dddddd"/>
    <rect x="12" y="5" width="1" height="1" fill="#dcdcdc"/>
    <rect x="13" y="5" width="1" height="1" fill="#ededed"/>
    <rect x="15" y="5" width="1" height="9" fill="#2e2e2e"/>
    <rect x="1" y="6" width="5" height="1" fill="#ffffff"/>
    <rect x="6" y="6" width="1" height="1" fill="#646464"/>
    <rect x="7" y="6" width="7" height="2" fill="#ffffff"/>
    <rect x="14" y="6" width="1" height="2" fill="#adadad"/>
    <rect x="1" y="7" width="2" height="2" fill="#ffffff"/>
    <rect x="3" y="7" width="1" height="1" fill="#bbbbbb"/>
    <rect x="4" y="7" width="1" height="1" fill="#e5e5e5"/>
    <rect x="5" y="7" width="1" height="1" fill="#bababa"/>
    <rect x="6" y="7" width="1" height="1" fill="#000000"/>
    <rect x="3" y="8" width="1" height="1" fill="#747474"/>
    <rect x="4" y="8" width="1" height="1" fill="#000000"/>
    <rect x="5" y="8" width="1" height="1" fill="#0c0c0c"/>
    <rect x="6" y="8" width="1" height="1" fill="#6b6b6b"/>
    <rect x="7" y="8" width="1" height="1" fill="#b4b4b4"/>
    <rect x="8" y="8" width="1" height="2" fill="#8c8c8c"/>
    <rect x="9" y="8" width="3" height="2" fill="#8f8f8f"/>
    <rect x="12" y="8" width="1" height="2" fill="#8d8d8d"/>
    <rect x="13" y="8" width="1" height="1" fill="#a1a1a1"/>
    <rect x="14" y="8" width="1" height="2" fill="#b0b0b0"/>
    <rect x="1" y="9" width="4" height="1" fill="#ffffff"/>
    <rect x="5" y="9" width="1" height="1" fill="#2e2e2e"/>
    <rect x="6" y="9" width="1" height="1" fill="#dcdcdc"/>
    <rect x="7" y="9" width="1" height="1" fill="#a9a9a9"/>
    <rect x="13" y="9" width="1" height="1" fill="#a0a0a0"/>
    <rect x="1" y="10" width="5" height="1" fill="#ffffff"/>
    <rect x="6" y="10" width="1" height="1" fill="#a6a6a6"/>
    <rect x="7" y="10" width="7" height="2" fill="#ffffff"/>
    <rect x="14" y="10" width="1" height="2" fill="#adadad"/>
    <rect x="1" y="11" width="4" height="1" fill="#ffffff"/>
    <rect x="5" y="11" width="1" height="1" fill="#c4c4c4"/>
    <rect x="6" y="11" width="1" height="1" fill="#000000"/>
    <rect x="1" y="12" width="2" height="1" fill="#ffffff"/>
    <rect x="3" y="12" width="1" height="1" fill="#242424"/>
    <rect x="4" y="12" width="1" height="1" fill="#000000"/>
    <rect x="5" y="12" width="1" height="1" fill="#363636"/>
    <rect x="6" y="12" width="1" height="1" fill="#5d5d5d"/>
    <rect x="7" y="12" width="1" height="1" fill="#b5b5b5"/>
    <rect x="8" y="12" width="1" height="1" fill="#8c8c8c"/>
    <rect x="9" y="12" width="3" height="1" fill="#8f8f8f"/>
    <rect x="12" y="12" width="1" height="1" fill="#8d8d8d"/>
    <rect x="13" y="12" width="1" height="2" fill="#a1a1a1"/>
    <rect x="14" y="12" width="1" height="1" fill="#b0b0b0"/>
    <rect x="1" y="13" width="3" height="1" fill="#ffffff"/>
    <rect x="4" y="13" width="1" height="1" fill="#eaeaea"/>
    <rect x="5" y="13" width="1" height="1" fill="#000000"/>
    <rect x="6" y="13" width="1" height="1" fill="#c0c0c0"/>
    <rect x="7" y="13" width="1" height="1" fill="#acacac"/>
    <rect x="8" y="13" width="1" height="1" fill="#8d8d8d"/>
    <rect x="9" y="13" width="3" height="1" fill="#909090"/>
    <rect x="12" y="13" width="1" height="1" fill="#8e8e8e"/>
    <rect x="14" y="13" width="1" height="1" fill="#b1b1b1"/>
    <rect x="1" y="14" width="13" height="1" fill="#ffffff"/>
    <rect x="14" y="14" width="1" height="1" fill="#b4b4b4"/>
    <rect x="15" y="14" width="1" height="1" fill="#292929"/>
    <rect x="0" y="15" width="1" height="1" fill="#313131"/>
    <rect x="1" y="15" width="2" height="1" fill="#292929"/>
    <rect x="3" y="15" width="10" height="1" fill="#282828"/>
    <rect x="13" y="15" width="1" height="1" fill="#292929"/>
    <rect x="14" y="15" width="1" height="1" fill="#222222"/>
    <rect x="15" y="15" width="1" height="1" fill="#737373"/>
  </g>
</svg>
