<?xml version="1.0" encoding="iso-8859-1"?>
<!-- Generator: Adobe Illustrator 16.0.0, SVG Export Plug-In . SVG Version: 6.00 Build 0)  -->
<!DOCTYPE svg PUBLIC "-//W3C//DTD SVG 1.1//EN" "http://www.w3.org/Graphics/SVG/1.1/DTD/svg11.dtd">
<svg version="1.1" id="Capa_1" xmlns="http://www.w3.org/2000/svg" xmlns:xlink="http://www.w3.org/1999/xlink" x="0px" y="0px"
	 width="612.002px" height="612.002px" viewBox="0 0 612.002 612.002" style="enable-background:new 0 0 612.002 612.002;"
	 xml:space="preserve">
<g>
	<g>
		<g>
			<g>
				<path d="M535.442,364.988c-5.278,0-9.562-4.282-9.562-9.562s4.283-9.563,9.562-9.563h42.272c4.145,0,7.948-1.713,10.678-4.463
					c2.749-2.749,4.463-6.533,4.463-10.678v-49.404c0-4.164-1.693-7.968-4.423-10.678l-0.021-0.02l-0.021,0.02
					c-2.749-2.749-6.533-4.462-10.678-4.462h-42.272c-4.78,0-8.745-3.526-9.442-8.128c-2.868-13.208-6.894-25.977-11.953-38.169
					l-0.199-0.498c-5.159-12.391-11.454-24.264-18.686-35.46c-2.49-3.845-1.873-8.825,1.255-11.933l-0.02-0.02l29.921-29.922
					c2.929-2.928,4.383-6.833,4.383-10.697c0-3.885-1.475-7.79-4.383-10.698l-34.923-34.922c-2.928-2.929-6.812-4.403-10.717-4.403
					s-7.81,1.454-10.697,4.363l-0.04-0.02l0.021,0.02l-29.902,29.902c-3.405,3.406-8.784,3.686-12.55,0.856
					c-11.156-7.191-22.989-13.407-35.341-18.507l-0.039-0.02v0.02c-12.352-5.12-25.32-9.204-38.728-12.052
					c-4.482-0.956-7.57-4.92-7.57-9.343h-0.021V34.276c0-4.164-1.692-7.969-4.423-10.678l-0.039-0.04
					c-2.688-2.729-6.475-4.422-10.657-4.422h-49.405c-4.164,0-7.968,1.693-10.678,4.422l-0.04,0.04
					c-2.729,2.709-4.423,6.514-4.423,10.678v42.272c0,4.781-3.546,8.746-8.147,9.443c-13.228,2.889-26.017,6.893-38.169,11.933v0.02
					c-12.61,5.22-24.662,11.574-35.978,18.885c-3.805,2.51-8.785,1.873-11.893-1.255l-0.02,0.02l-29.921-29.902l0,0
					c-2.929-2.928-6.833-4.402-10.698-4.402c-3.865,0-7.77,1.474-10.678,4.382l-0.02,0.02l-34.942,34.942
					c-2.909,2.928-4.402,6.813-4.402,10.698c0,3.885,1.474,7.789,4.402,10.717l0.498,0.538l29.426,29.425
					c3.227,3.247,3.625,8.228,1.235,11.913c-7.311,11.295-13.666,23.348-18.885,35.958c-5.14,12.351-9.204,25.3-12.072,38.707
					c-0.956,4.482-4.92,7.57-9.343,7.57v0.02H34.265c-4.164,0-7.929,1.693-10.678,4.403l-0.04,0.04
					c-2.729,2.749-4.422,6.534-4.422,10.678v49.405c0,4.144,1.713,7.947,4.462,10.678l0.398,0.438
					c2.669,2.49,6.295,4.023,10.259,4.023h42.273c4.781,0,8.745,3.526,9.442,8.128c2.869,13.208,6.893,25.979,11.953,38.169
					l0.199,0.498c5.16,12.392,11.455,24.265,18.687,35.46c2.49,3.845,1.873,8.825-1.255,11.953l0.02,0.02l-29.902,29.902
					c-2.928,2.928-4.402,6.833-4.402,10.718s1.474,7.789,4.402,10.697l34.942,34.922c2.929,2.93,6.813,4.402,10.698,4.402
					c3.905,0,7.789-1.454,10.698-4.343l29.902-29.922c3.267-3.308,8.387-3.705,12.092-1.195
					c11.255,7.271,23.268,13.627,35.838,18.826l0.359,0.158c12.192,5.021,25.041,9.024,38.328,11.873
					c4.482,0.956,7.57,4.922,7.57,9.344h0.02v42.272c0,4.163,1.693,7.948,4.402,10.697l0.04,0.04
					c2.749,2.709,6.534,4.402,10.678,4.402h49.405c4.145,0,7.948-1.714,10.678-4.463l0.438-0.397
					c2.489-2.689,4.023-6.315,4.023-10.279v-42.272c0-4.78,3.525-8.745,8.128-9.462c13.208-2.869,25.978-6.873,38.148-11.935
					c12.61-5.239,24.684-11.594,35.979-18.904c3.845-2.511,8.845-1.873,11.973,1.274l0.199,0.199l29.683,29.702l0.021-0.021
					c2.928,2.929,6.812,4.402,10.696,4.402c3.904,0,7.811-1.454,10.737-4.362l-0.02-0.021l34.922-34.923l0.418-0.397
					c2.648-2.868,3.965-6.594,3.965-10.318c0-3.885-1.475-7.79-4.383-10.718l-7.472-7.471l-7.471-7.472l-7.47-7.47l-0.479-0.538
					l-6.912-6.953c-3.326-3.307-3.705-8.466-1.136-12.172l2.49-3.943h-0.021l2.688-4.482l0.18-0.299l2.191-3.845l2.49-4.621
					l0.119-0.199l2.092-4.104l-0.021-0.02l2.29-4.741c2.291-4.741,7.989-6.732,12.73-4.441s6.732,7.987,4.441,12.729l-2.291,4.741
					h0.039l-0.099,0.199l-2.172,4.264l-0.299,0.598l-2.49,4.621l-0.119,0.199l-2.45,4.283l-0.26,0.479l-1.573,2.609l1.594,1.594
					l0.559,0.498l7.471,7.49l7.471,7.471l7.471,7.471c6.653,6.653,10.001,15.459,10.001,24.244c0,8.446-3.108,16.913-9.323,23.507
					l-0.657,0.737l-34.922,34.922l-0.021-0.021l-0.021,0.021c-6.674,6.653-15.459,10-24.185,10c-8.785,0-17.57-3.327-24.244-10
					l0.02-0.021l-0.02-0.021l-24.523-24.522c-10.357,6.256-21.216,11.754-32.471,16.415c-11.097,4.603-22.611,8.406-34.464,11.354
					v34.663c0,9.044-3.586,17.371-9.423,23.507l-0.639,0.697c-6.194,6.195-14.802,10.061-24.204,10.061h-49.405
					c-9.403,0-17.969-3.864-24.184-10.041l-0.04-0.039c-6.216-6.216-10.08-14.781-10.08-24.185v-34.703
					c-11.614-2.889-22.95-6.634-33.906-11.116l-0.558-0.198c-11.255-4.683-22.133-10.181-32.472-16.415l-24.523,24.522l-0.04,0.04
					c-6.673,6.653-15.459,10-24.184,10c-8.786,0-17.571-3.327-24.225-10L72.17,504.934c-6.654-6.654-10-15.459-10-24.244
					s3.347-17.591,10-24.244l24.563-24.562c-6.116-10.159-11.554-20.857-16.176-31.953l-0.219-0.479
					c-4.602-11.115-8.427-22.649-11.375-34.482H34.265c-9.044,0-17.352-3.586-23.507-9.423l-0.697-0.639
					C3.865,348.713,0,340.127,0,330.704v-49.405c0-9.403,3.865-17.949,10.06-24.165l0.04-0.04
					c6.215-6.196,14.762-10.06,24.165-10.06h34.683c2.948-11.854,6.773-23.388,11.375-34.484
					c4.662-11.235,10.16-22.093,16.396-32.452l-24.025-24.045l-0.538-0.478c-6.654-6.654-10-15.479-10-24.244
					c0-8.766,3.347-17.571,10-24.224l34.942-34.922l0.02-0.02c6.654-6.674,15.439-10,24.205-10c8.765,0,17.57,3.327,24.224,10
					l0.02,0.02l24.543,24.543c10.339-6.235,21.196-11.734,32.432-16.396v0.02l0.04-0.02c11.116-4.602,22.65-8.427,34.444-11.355
					V34.273c0-9.383,3.845-17.949,10.06-24.165l0.04-0.04c6.213-6.212,14.799-10.057,24.162-10.057h49.405
					c9.383,0,17.948,3.845,24.164,10.06l0.04,0.04c6.216,6.215,10.061,14.782,10.061,24.165V68.96
					c11.853,2.948,23.388,6.773,34.483,11.375v0.02c11.274,4.682,22.111,10.16,32.411,16.375l24.563-24.543l0.021,0.02
					c6.693-6.693,15.479-10.02,24.204-10.02c8.785,0,17.57,3.327,24.244,10l34.922,34.922c6.653,6.673,10,15.459,10,24.244
					c0,8.765-3.325,17.57-10,24.224l-24.562,24.563c6.116,10.16,11.555,20.837,16.177,31.954l0.219,0.478
					c4.603,11.116,8.428,22.65,11.375,34.483h34.703c9.423,0,18.009,3.865,24.204,10.061l-0.02,0.02
					c6.215,6.216,10.1,14.802,10.1,24.185v49.404c0,9.423-3.864,18.009-10.08,24.205c-6.195,6.195-14.802,10.06-24.204,10.06
					L535.442,364.988L535.442,364.988z M220.229,514.258l4.781,12.292C226.982,521.828,224.851,516.39,220.229,514.258
					L220.229,514.258z M495.321,427.899l1.076-1.313C495.999,426.983,495.62,427.422,495.321,427.899L495.321,427.899z
					 M505.461,410.509l3.407-3.486C507.493,407.839,506.318,409.015,505.461,410.509z"/>
			</g>
			<path d="M305.99,185.28c33.348,0,63.549,13.526,85.361,35.36c21.834,21.834,35.36,52.015,35.36,85.363
				c0,33.328-13.526,63.527-35.36,85.361c-21.834,21.835-52.033,35.36-85.361,35.36c-33.348,0-63.549-13.525-85.382-35.359
				c-21.814-21.834-35.34-52.016-35.34-85.362c0-33.329,13.526-63.549,35.34-85.383C242.461,198.806,272.662,185.28,305.99,185.28
				L305.99,185.28z M377.846,234.166c-18.367-18.368-43.787-29.763-71.836-29.763s-53.468,11.375-71.836,29.743
				c-18.367,18.367-29.742,43.787-29.742,71.856c0,28.049,11.375,53.447,29.742,71.836c18.368,18.367,43.787,29.762,71.836,29.762
				s53.469-11.395,71.836-29.762s29.764-43.787,29.764-71.836C407.588,277.953,396.213,252.554,377.846,234.166z"/>
			<path d="M305.99,234.684c19.702,0,37.552,7.989,50.42,20.877c12.89,12.889,20.896,30.739,20.896,50.441
				c0,19.622-7.987,37.452-20.896,50.381l-0.021,0.02l-0.02,0.021l-0.021,0.021c-12.929,12.909-30.737,20.877-50.359,20.877
				c-19.702,0-37.532-7.987-50.441-20.896c-12.889-12.889-20.877-30.738-20.877-50.42c0-19.663,7.989-37.512,20.877-50.401
				l0.04-0.04C268.498,242.673,286.348,234.684,305.99,234.684L305.99,234.684z M342.904,269.088
				c-9.423-9.423-22.491-15.28-36.896-15.28c-14.403,0-27.471,5.817-36.914,15.24l-0.04,0.04
				c-9.403,9.442-15.24,22.511-15.24,36.914c0,14.402,5.857,27.471,15.279,36.894c9.443,9.443,22.491,15.3,36.914,15.3
				c14.443,0,27.491-5.837,36.896-15.238l0.04-0.04c9.422-9.403,15.238-22.473,15.238-36.896S352.327,278.531,342.904,269.088z"/>
		</g>
	</g>
</g>
<g>
</g>
<g>
</g>
<g>
</g>
<g>
</g>
<g>
</g>
<g>
</g>
<g>
</g>
<g>
</g>
<g>
</g>
<g>
</g>
<g>
</g>
<g>
</g>
<g>
</g>
<g>
</g>
<g>
</g>
</svg>
