<?xml version="1.0" encoding="UTF-8" standalone="no"?>
<!-- Generator: Adobe Illustrator 19.1.0, SVG Export Plug-In . SVG Version: 6.00 Build 0)  -->

<svg
   xmlns:dc="http://purl.org/dc/elements/1.1/"
   xmlns:cc="http://creativecommons.org/ns#"
   xmlns:rdf="http://www.w3.org/1999/02/22-rdf-syntax-ns#"
   xmlns:svg="http://www.w3.org/2000/svg"
   xmlns="http://www.w3.org/2000/svg"
   xmlns:sodipodi="http://sodipodi.sourceforge.net/DTD/sodipodi-0.dtd"
   xmlns:inkscape="http://www.inkscape.org/namespaces/inkscape"
   version="1.1"
   id="Capa_1"
   x="0px"
   y="0px"
   viewBox="0 0 478.703 478.703"
   style="enable-background:new 0 0 478.703 478.703;"
   xml:space="preserve"
   inkscape:version="0.91 r13725"
   sodipodi:docname="Gear.svg"
   inkscape:export-filename="G:\Workspace\EnterpriseArchitecture\Ducen Architecture Framework\Icons\Kumar\Capability.png"
   inkscape:export-xdpi="2.9614537"
   inkscape:export-ydpi="2.9614537"><metadata
     id="metadata45"><rdf:RDF><cc:Work
         rdf:about=""><dc:format>image/svg+xml</dc:format><dc:type
           rdf:resource="http://purl.org/dc/dcmitype/StillImage" /></cc:Work></rdf:RDF></metadata><defs
     id="defs43" /><sodipodi:namedview
     pagecolor="#ffffff"
     bordercolor="#666666"
     borderopacity="1"
     objecttolerance="10"
     gridtolerance="10"
     guidetolerance="10"
     inkscape:pageopacity="0"
     inkscape:pageshadow="2"
     inkscape:window-width="1366"
     inkscape:window-height="706"
     id="namedview41"
     showgrid="false"
     inkscape:zoom="0.49299879"
     inkscape:cx="239.3515"
     inkscape:cy="239.3515"
     inkscape:window-x="-8"
     inkscape:window-y="-8"
     inkscape:window-maximized="1"
     inkscape:current-layer="Capa_1" /><g
     id="g3"><g
       id="g5"><path
         d="M454.2,189.101l-33.6-5.7c-3.5-11.3-8-22.2-13.5-32.6l19.8-27.7c8.4-11.8,7.1-27.9-3.2-38.1l-29.8-29.8    c-5.6-5.6-13-8.7-20.9-8.7c-6.2,0-12.1,1.9-17.1,5.5l-27.8,19.8c-10.8-5.7-22.1-10.4-33.8-13.9l-5.6-33.2    c-2.4-14.3-14.7-24.7-29.2-24.7h-42.1c-14.5,0-26.8,10.4-29.2,24.7l-5.8,34c-11.2,3.5-22.1,8.1-32.5,13.7l-27.5-19.8    c-5-3.6-11-5.5-17.2-5.5c-7.9,0-15.4,3.1-20.9,8.7l-29.9,29.8c-10.2,10.2-11.6,26.3-3.2,38.1l20,28.1    c-5.5,10.5-9.9,21.4-13.3,32.7l-33.2,5.6c-14.3,2.4-24.7,14.7-24.7,29.2v42.1c0,14.5,10.4,26.8,24.7,29.2l34,5.8    c3.5,11.2,8.1,22.1,13.7,32.5l-19.7,27.4c-8.4,11.8-7.1,27.9,3.2,38.1l29.8,29.8c5.6,5.6,13,8.7,20.9,8.7c6.2,0,12.1-1.9,17.1-5.5    l28.1-20c10.1,5.3,20.7,9.6,31.6,13l5.6,33.6c2.4,14.3,14.7,24.7,29.2,24.7h42.2c14.5,0,26.8-10.4,29.2-24.7l5.7-33.6    c11.3-3.5,22.2-8,32.6-13.5l27.7,19.8c5,3.6,11,5.5,17.2,5.5l0,0c7.9,0,15.3-3.1,20.9-8.7l29.8-29.8c10.2-10.2,11.6-26.3,3.2-38.1    l-19.8-27.8c5.5-10.5,10.1-21.4,13.5-32.6l33.6-5.6c14.3-2.4,24.7-14.7,24.7-29.2v-42.1    C478.9,203.801,468.5,191.501,454.2,189.101z M451.9,260.401c0,1.3-0.9,2.4-2.2,2.6l-42,7c-5.3,0.9-9.5,4.8-10.8,9.9    c-3.8,14.7-9.6,28.8-17.4,41.9c-2.7,4.6-2.5,10.3,0.6,14.7l24.7,34.8c0.7,1,0.6,2.5-0.3,3.4l-29.8,29.8c-0.7,0.7-1.4,0.8-1.9,0.8    c-0.6,0-1.1-0.2-1.5-0.5l-34.7-24.7c-4.3-3.1-10.1-3.3-14.7-0.6c-13.1,7.8-27.2,13.6-41.9,17.4c-5.2,1.3-9.1,5.6-9.9,10.8l-7.1,42    c-0.2,1.3-1.3,2.2-2.6,2.2h-42.1c-1.3,0-2.4-0.9-2.6-2.2l-7-42c-0.9-5.3-4.8-9.5-9.9-10.8c-14.3-3.7-28.1-9.4-41-16.8    c-2.1-1.2-4.5-1.8-6.8-1.8c-2.7,0-5.5,0.8-7.8,2.5l-35,24.9c-0.5,0.3-1,0.5-1.5,0.5c-0.4,0-1.2-0.1-1.9-0.8l-29.8-29.8    c-0.9-0.9-1-2.3-0.3-3.4l24.6-34.5c3.1-4.4,3.3-10.2,0.6-14.8c-7.8-13-13.8-27.1-17.6-41.8c-1.4-5.1-5.6-9-10.8-9.9l-42.3-7.2    c-1.3-0.2-2.2-1.3-2.2-2.6v-42.1c0-1.3,0.9-2.4,2.2-2.6l41.7-7c5.3-0.9,9.6-4.8,10.9-10c3.7-14.7,9.4-28.9,17.1-42    c2.7-4.6,2.4-10.3-0.7-14.6l-24.9-35c-0.7-1-0.6-2.5,0.3-3.4l29.8-29.8c0.7-0.7,1.4-0.8,1.9-0.8c0.6,0,1.1,0.2,1.5,0.5l34.5,24.6    c4.4,3.1,10.2,3.3,14.8,0.6c13-7.8,27.1-13.8,41.8-17.6c5.1-1.4,9-5.6,9.9-10.8l7.2-42.3c0.2-1.3,1.3-2.2,2.6-2.2h42.1    c1.3,0,2.4,0.9,2.6,2.2l7,41.7c0.9,5.3,4.8,9.6,10,10.9c15.1,3.8,29.5,9.7,42.9,17.6c4.6,2.7,10.3,2.5,14.7-0.6l34.5-24.8    c0.5-0.3,1-0.5,1.5-0.5c0.4,0,1.2,0.1,1.9,0.8l29.8,29.8c0.9,0.9,1,2.3,0.3,3.4l-24.7,34.7c-3.1,4.3-3.3,10.1-0.6,14.7    c7.8,13.1,13.6,27.2,17.4,41.9c1.3,5.2,5.6,9.1,10.8,9.9l42,7.1c1.3,0.2,2.2,1.3,2.2,2.6v42.1H451.9z"
         id="path7" /><path
         d="M239.4,136.001c-57,0-103.3,46.3-103.3,103.3s46.3,103.3,103.3,103.3s103.3-46.3,103.3-103.3S296.4,136.001,239.4,136.001    z M239.4,315.601c-42.1,0-76.3-34.2-76.3-76.3s34.2-76.3,76.3-76.3s76.3,34.2,76.3,76.3S281.5,315.601,239.4,315.601z"
         id="path9" /></g></g><g
     id="g11" /><g
     id="g13" /><g
     id="g15" /><g
     id="g17" /><g
     id="g19" /><g
     id="g21" /><g
     id="g23" /><g
     id="g25" /><g
     id="g27" /><g
     id="g29" /><g
     id="g31" /><g
     id="g33" /><g
     id="g35" /><g
     id="g37" /><g
     id="g39" /><path
     style="opacity:1;fill:#bbd337;fill-opacity:1;stroke:#bbd337;stroke-width:9.5882597;stroke-miterlimit:4;stroke-dasharray:none;stroke-opacity:1"
     d="m 204.26892,473.51841 c -9.70777,-5.91921 -12.76205,-12.11123 -16.54258,-33.53715 l -3.43628,-19.47497 -16.54163,-7.13659 -16.54163,-7.13659 -13.83854,9.99108 c -18.4446,13.31654 -22.18614,15.09752 -31.44891,14.96967 -10.492994,-0.14483 -17.949787,-5.09379 -36.688705,-24.3498 -25.785183,-26.49674 -26.789206,-34.58655 -7.59179,-61.17023 L 73.333353,329.47986 66.075704,312.38923 58.818055,295.29858 42.492224,292.85001 C 5.7826978,287.34424 0.81136102,281.0539 0.81136102,240.11033 c 0,-27.83833 0.87279868,-31.4999 9.78614498,-41.05497 5.562178,-5.96264 11.144762,-7.87775 33.82451,-11.60354 l 14.198818,-2.33256 6.705905,-17.17062 6.705903,-17.17063 -9.922548,-13.64227 C 48.65997,118.64349 47.46462,116.06873 47.46462,105.58959 c 0,-7.486969 1.371892,-10.800485 7.823524,-18.896075 11.88649,-14.915316 31.702078,-32.915129 40.096973,-36.42274 10.810803,-4.517042 18.124783,-2.347866 37.317293,11.06753 l 16.8341,11.766887 16.40844,-7.023311 c 9.02464,-3.862823 16.64414,-7.205375 16.93222,-7.427895 0.28808,-0.22252 2.17864,-9.672665 4.20125,-21.000323 5.81305,-32.5562176 11.92579,-36.84230198 52.54383,-36.84230198 21.18843,0 27.2578,0.67991508 33.0267,3.69979008 9.44578,4.9446188 14.87147,16.1315489 17.98994,37.0924359 l 2.54684,17.118706 11.5211,4.26503 c 6.33663,2.345767 14.36085,5.441722 17.83161,6.879902 6.07695,2.518105 6.90685,2.194583 22.42644,-8.742365 27.62214,-19.465847 33.92007,-18.826853 59.73727,6.060987 23.27373,22.435949 26.91005,28.248136 25.68027,41.046693 -0.73881,7.6888 -3.10926,12.7923 -11.00995,23.70401 -5.53766,7.64808 -10.67692,14.92015 -11.42061,16.16016 -0.74368,1.24001 1.77343,9.89019 5.59356,19.22262 l 6.94572,16.96806 19.48254,3.43762 c 33.9941,5.99813 37.49711,10.80218 37.49711,51.42365 0,24.76613 -0.51544,29.24303 -4.03068,35.00848 -5.88164,9.64666 -14.61387,14.02554 -33.60315,16.85068 -9.27233,1.37949 -17.60878,3.05447 -18.52544,3.72213 -3.87842,2.825 -15.45056,33.22132 -13.64013,35.82833 21.47731,30.92734 23.16131,33.96227 23.16131,41.7414 0,11.37291 -3.43855,16.67172 -23.68843,36.5038 -20.15423,19.73841 -23.70247,22.02922 -34.12104,22.02922 -8.79008,0 -11.98086,-1.55158 -30.11397,-14.64358 l -13.88675,-10.02613 -16.53929,6.73441 c -9.09661,3.70393 -17.08558,7.48737 -17.75327,8.40761 -0.66766,0.92023 -2.34264,9.25962 -3.72213,18.53195 -2.82514,18.98928 -7.20402,27.72151 -16.85068,33.60315 -5.76545,3.51524 -10.24235,4.03068 -35.00848,4.03068 -24.5775,0 -29.26962,-0.53169 -34.87974,-3.95238 z m 63.40985,-45.29484 c 2.31905,-13.14904 5.51991,-25.13584 7.113,-26.63735 1.59311,-1.50148 7.91684,-4.33437 14.05275,-6.29531 6.13592,-1.96094 17.45826,-6.71476 25.16078,-10.56404 16.48744,-8.23953 15.84805,-8.39128 40.92651,9.71313 9.18193,6.62853 17.44495,12.05187 18.36225,12.05187 2.24043,0 33.19781,-30.87117 33.19781,-33.10535 0,-0.96816 -5.42334,-9.27278 -12.05187,-18.45471 -18.13058,-25.11471 -17.9693,-24.42499 -9.59826,-41.04765 3.91246,-7.76915 8.6013,-19.24323 10.4196,-25.49797 1.8183,-6.25475 4.71916,-12.54509 6.44636,-13.97854 1.72721,-1.43345 13.77902,-4.48256 26.78181,-6.77582 l 23.64142,-4.16954 0.56939,-23.57921 c 0.43737,-18.11178 -0.0537,-23.81831 -2.11773,-24.61036 -1.47792,-0.56712 -12.43526,-2.63084 -24.34968,-4.58604 -13.73883,-2.25459 -22.69969,-4.74786 -24.49799,-6.81628 -1.55949,-1.79376 -4.44958,-8.28168 -6.42241,-14.4176 -1.9728,-6.13592 -6.73636,-17.45827 -10.58564,-25.16078 -8.20402,-16.41637 -8.51426,-15.12132 9.73396,-40.63288 L 407.13254,105.94373 390.00842,88.819618 372.8843,71.695507 352.66975,86.074457 C 339.04876,95.763278 331.13193,100.14699 328.39837,99.513989 326.16713,98.99731 317.03932,95.414874 308.11435,91.553022 299.18938,87.691169 287.60391,82.981841 282.36885,81.087846 271.46673,77.143557 270.33144,74.830018 266.36692,48.478821 262.65334,23.79558 264.07627,24.924467 237.52097,25.593854 l -22.71314,0.572539 -4.3119,23.829355 c -2.37156,13.106144 -5.40835,25.150469 -6.74843,26.765167 -1.34007,1.6147 -7.15836,4.482693 -12.92951,6.373322 -5.77115,1.890629 -16.63149,6.50456 -24.13408,10.253177 -7.5026,3.74862 -15.55265,6.815676 -17.88901,6.815676 -2.33636,0 -12.54172,-5.933081 -22.67857,-13.18462 -10.13685,-7.25154 -19.45105,-13.184617 -20.69822,-13.184617 -1.24718,0 -9.465655,7.240527 -18.263285,16.09006 l -15.995691,16.090057 3.656304,5.58023 c 2.010966,3.06912 8.545854,12.39483 14.521974,20.7238 5.976121,8.32897 10.865678,16.39936 10.865678,17.93421 0,1.53484 -3.11875,8.98362 -6.93055,16.55284 -3.811799,7.56923 -8.418248,18.87975 -10.236551,25.13449 -1.818304,6.25474 -4.567301,12.41904 -6.108885,13.69845 -1.541582,1.2794 -12.680607,4.0964 -24.753392,6.26 -12.072782,2.16361 -23.09149,4.35938 -24.486017,4.87948 -1.818495,0.67822 -2.535503,7.28752 -2.535503,23.37194 0,26.25037 -2.348166,23.90767 29.347484,29.27931 11.12082,1.88471 21.278058,4.30512 22.571641,5.37871 1.293584,1.07357 4.827302,9.00682 7.852709,17.62944 3.025407,8.62261 7.700863,19.49114 10.3899,24.15229 2.689039,4.66114 4.889164,10.68043 4.889164,13.37622 0,2.7899 -5.679855,12.8412 -13.18462,23.33204 -7.25154,10.13684 -13.184617,19.19985 -13.184617,20.14001 0,3.54218 32.169087,33.59655 34.813947,32.52537 1.49133,-0.60399 10.46707,-6.66512 19.94609,-13.46918 9.47903,-6.80403 19.16288,-12.37098 21.51967,-12.37098 2.35679,0 11.03128,3.10694 19.27665,6.90432 8.24537,3.79737 18.72595,7.90103 23.29017,9.11925 4.56423,1.21822 9.746,3.81615 11.51505,5.7732 1.76905,1.95704 4.6662,12.22968 6.43811,22.82808 5.38326,32.19899 1.65497,28.61296 29.06332,27.95443 l 23.76543,-0.57099 4.21648,-23.90736 z"
     id="path4205"
     inkscape:connector-curvature="0" /><path
     style="opacity:1;fill:#bbd337;fill-opacity:1;stroke:#bbd337;stroke-width:9.5882597;stroke-miterlimit:4;stroke-dasharray:none;stroke-opacity:1"
     d="m 215.07979,338.36501 c -50.28639,-12.17169 -84.54065,-63.16019 -76.62715,-114.06182 7.32542,-47.11892 46.12725,-82.90287 94.1339,-86.81247 67.01918,-5.45795 122.86963,60.72751 105.97598,125.58661 -14.43608,55.42384 -68.74584,88.53662 -123.48273,75.28768 z m 50.17666,-26.42619 c 20.48112,-7.14486 39.25365,-26.0447 47.1156,-47.43513 5.04644,-13.73012 4.53322,-38.70464 -1.09562,-53.31571 -5.95813,-15.46583 -23.03183,-33.9375 -38.29894,-41.4348 -10.48225,-5.14757 -13.52001,-5.65541 -33.82883,-5.65541 -21.51668,0 -22.76471,0.24526 -34.99419,6.87718 -15.40491,8.35391 -27.44886,20.9948 -34.66033,36.37821 -4.77459,10.18509 -5.39441,13.96552 -5.37936,32.8097 0.0158,19.91139 0.43148,22.09286 6.38216,33.50161 7.50578,14.39021 23.45858,30.03812 36.50843,35.81069 18.05481,7.9865 39.78501,8.90555 58.25108,2.46366 z"
     id="path4207"
     inkscape:connector-curvature="0"
     inkscape:export-xdpi="6.73"
     inkscape:export-ydpi="6.73" /></svg>