<?xml version="1.0" encoding="iso-8859-1"?>
<!-- Generator: Adobe Illustrator 19.1.0, SVG Export Plug-In . SVG Version: 6.00 Build 0)  -->
<svg version="1.1" id="Capa_1" xmlns="http://www.w3.org/2000/svg" xmlns:xlink="http://www.w3.org/1999/xlink" x="0px" y="0px"
	 viewBox="0 0 511.691 511.691" style="enable-background:new 0 0 511.691 511.691;" xml:space="preserve">
<g>
	<g>
		<path style="fill:#00ABFF;" d="M511.08,60.938C509.845,57.95,506.923,56,503.689,56h-48V8c0-3.234-1.945-6.152-4.938-7.391
			c-3-1.234-6.43-0.559-8.719,1.734l-56,56c-1.5,1.5-2.344,3.535-2.344,5.656v56c0,4.418,3.578,8,8,8h56
			c2.125,0,4.156-0.844,5.656-2.344l56-56C511.634,67.368,512.322,63.93,511.08,60.938z"/>
	</g>
	<g>
		<path style="fill:#4082FD;" d="M386.032,125.658c1.447,1.447,3.446,2.343,5.657,2.343h56c2.125,0,4.156-0.844,5.656-2.344l56-56
			c2.289-2.289,2.977-5.727,1.734-8.719C509.845,57.95,506.923,56,503.689,56h-48L386.032,125.658z"/>
	</g>
	<g>
		<circle style="fill:#FF4F19;" cx="223.689" cy="288" r="223.689"/>
	</g>
	<g>
		<circle style="fill:#FFFFFF;" cx="223.689" cy="288" r="192"/>
	</g>
	<g>
		<circle style="fill:#FF4F19;" cx="223.689" cy="288" r="159.689"/>
	</g>
	<g>
		<circle style="fill:#FFFFFF;" cx="223.689" cy="288" r="128"/>
	</g>
	<g>
		<circle style="fill:#FF4F19;" cx="223.689" cy="288" r="96"/>
	</g>
	<g>
		<circle style="fill:#FFFFFF;" cx="223.689" cy="288" r="64"/>
	</g>
	<g>
		<circle style="fill:#FF4F19;" cx="223.689" cy="288" r="32"/>
	</g>
	<g>
		<g>
			<path style="fill:#B9BBC1;" d="M223.689,296c-2.047,0-4.094-0.781-5.656-2.344c-3.125-3.125-3.125-8.188,0-11.312l152-152
				c3.125-3.125,8.187-3.125,11.312,0c3.125,3.125,3.125,8.187,0,11.312l-152,152C227.783,295.219,225.736,296,223.689,296z"/>
		</g>
	</g>
	<g>
		<g>
			<path style="fill:#5C546A;" d="M263.689,264c-4.094,0-8.187-1.562-11.312-4.688c-6.25-6.246-6.25-16.379,0-22.625L390.033,99.032
				c6.25-6.25,16.375-6.25,22.625,0c6.25,6.246,6.25,16.379,0,22.625L275.002,259.313C271.877,262.438,267.783,264,263.689,264z"/>
		</g>
	</g>
</g>
<g>
</g>
<g>
</g>
<g>
</g>
<g>
</g>
<g>
</g>
<g>
</g>
<g>
</g>
<g>
</g>
<g>
</g>
<g>
</g>
<g>
</g>
<g>
</g>
<g>
</g>
<g>
</g>
<g>
</g>
</svg>
