<?xml version="1.0" encoding="UTF-8" standalone="no"?>
<!-- Generator: Adobe Illustrator 16.0.0, SVG Export Plug-In . SVG Version: 6.00 Build 0)  -->

<svg
   xmlns:dc="http://purl.org/dc/elements/1.1/"
   xmlns:cc="http://creativecommons.org/ns#"
   xmlns:rdf="http://www.w3.org/1999/02/22-rdf-syntax-ns#"
   xmlns:svg="http://www.w3.org/2000/svg"
   xmlns="http://www.w3.org/2000/svg"
   xmlns:sodipodi="http://sodipodi.sourceforge.net/DTD/sodipodi-0.dtd"
   xmlns:inkscape="http://www.inkscape.org/namespaces/inkscape"
   version="1.1"
   id="Capa_1"
   x="0px"
   y="0px"
   width="16"
   height="16"
   viewBox="0 0 16 16"
   xml:space="preserve"
   inkscape:version="0.91 r13725"
   sodipodi:docname="Opinion.svg"
   inkscape:export-filename="G:\Workspace\EnterpriseArchitecture\Ducen Architecture Framework\Icons\Kumar\Opinion.png"
   inkscape:export-xdpi="90"
   inkscape:export-ydpi="90"><metadata
     id="metadata41"><rdf:RDF><cc:Work
         rdf:about=""><dc:format>image/svg+xml</dc:format><dc:type
           rdf:resource="http://purl.org/dc/dcmitype/StillImage" /><dc:title></dc:title></cc:Work></rdf:RDF></metadata><defs
     id="defs39" /><sodipodi:namedview
     pagecolor="#ffffff"
     bordercolor="#666666"
     borderopacity="1"
     objecttolerance="10"
     gridtolerance="10"
     guidetolerance="10"
     inkscape:pageopacity="0"
     inkscape:pageshadow="2"
     inkscape:window-width="1280"
     inkscape:window-height="658"
     id="namedview37"
     showgrid="false"
     inkscape:zoom="17.009009"
     inkscape:cx="10.828724"
     inkscape:cy="12.446231"
     inkscape:window-x="-8"
     inkscape:window-y="-8"
     inkscape:window-maximized="1"
     inkscape:current-layer="Capa_1" /><rect
     style="opacity:1;fill:#ffffff;fill-opacity:1;stroke:none;stroke-width:1;stroke-linejoin:round;stroke-miterlimit:4;stroke-dasharray:none;stroke-opacity:1"
     id="rect4169"
     width="15.638771"
     height="15.697563"
     x="0"
     y="-0.050317805"
     rx="0"
     inkscape:export-xdpi="90"
     inkscape:export-ydpi="90" /><g
     id="g3"
     transform="matrix(0.55222177,0,0,0.54054054,0.42516089,0.76483061)"
     inkscape:export-xdpi="90"
     inkscape:export-ydpi="90"><path
       d="m 13.875,27.75 -4.268,-7.393 -5.334,0 c -2.195,0 -3.98,-1.618 -3.98,-3.609 l 0,-13.138 C 0.293,1.619 2.079,0 4.273,0 l 19.204,0 c 2.194,0 3.979,1.619 3.979,3.61 l 0,13.138 c 0,1.991 -1.785,3.609 -3.979,3.609 l -5.334,0 -4.268,7.393 z M 4.273,2 C 3.182,2 2.293,2.722 2.293,3.61 l 0,13.138 c 0,0.888 0.889,1.609 1.98,1.609 l 6.486,0 3.113,5.393 3.112,-5.393 6.49,0 c 1.092,0 1.979,-0.722 1.979,-1.609 l 0,-13.138 C 25.453,2.722 24.563,2 23.474,2 L 4.273,2 Z"
       id="path5"
       inkscape:connector-curvature="0" /></g><g
     id="g7"
     transform="translate(0,-11.75)"
     inkscape:export-xdpi="90"
     inkscape:export-ydpi="90" /><g
     id="g9"
     transform="translate(0,-11.75)"
     inkscape:export-xdpi="90"
     inkscape:export-ydpi="90" /><g
     id="g11"
     transform="translate(0,-11.75)"
     inkscape:export-xdpi="90"
     inkscape:export-ydpi="90" /><g
     id="g13"
     transform="translate(0,-11.75)"
     inkscape:export-xdpi="90"
     inkscape:export-ydpi="90" /><g
     id="g15"
     transform="translate(0,-11.75)"
     inkscape:export-xdpi="90"
     inkscape:export-ydpi="90" /><g
     id="g17"
     transform="translate(0,-11.75)"
     inkscape:export-xdpi="90"
     inkscape:export-ydpi="90" /><g
     id="g19"
     transform="translate(0,-11.75)"
     inkscape:export-xdpi="90"
     inkscape:export-ydpi="90" /><g
     id="g21"
     transform="translate(0,-11.75)"
     inkscape:export-xdpi="90"
     inkscape:export-ydpi="90" /><g
     id="g23"
     transform="translate(0,-11.75)"
     inkscape:export-xdpi="90"
     inkscape:export-ydpi="90" /><g
     id="g25"
     transform="translate(0,-11.75)"
     inkscape:export-xdpi="90"
     inkscape:export-ydpi="90" /><g
     id="g27"
     transform="translate(0,-11.75)"
     inkscape:export-xdpi="90"
     inkscape:export-ydpi="90" /><g
     id="g29"
     transform="translate(0,-11.75)"
     inkscape:export-xdpi="90"
     inkscape:export-ydpi="90" /><g
     id="g31"
     transform="translate(0,-11.75)"
     inkscape:export-xdpi="90"
     inkscape:export-ydpi="90" /><g
     id="g33"
     transform="translate(0,-11.75)"
     inkscape:export-xdpi="90"
     inkscape:export-ydpi="90" /><g
     id="g35"
     transform="translate(0,-11.75)"
     inkscape:export-xdpi="90"
     inkscape:export-ydpi="90" /></svg>