<?xml version="1.0" encoding="iso-8859-1"?>
<!-- Generator: Adobe Illustrator 19.1.0, SVG Export Plug-In . SVG Version: 6.00 Build 0)  -->
<svg version="1.1" id="Capa_1" xmlns="http://www.w3.org/2000/svg" xmlns:xlink="http://www.w3.org/1999/xlink" x="0px" y="0px"
	 viewBox="0 0 297 297" style="enable-background:new 0 0 297 297;" xml:space="preserve">
<g>
	<path style="fill:#FFBE00;" d="M16,183h17v-43c0-4.418,3.582-8,8-8s8,3.582,8,8v43h20v-28c0-4.418,3.582-8,8-8s8,3.582,8,8v28h19
		v-43c0-4.418,3.582-8,8-8s8,3.582,8,8v43h20v-28c0-4.418,3.582-8,8-8s8,3.582,8,8v28h20v-43c0-4.418,3.582-8,8-8s8,3.582,8,8v43h19
		v-28c0-4.418,3.582-8,8-8s8,3.582,8,8v28h20v-43c0-4.418,3.582-8,8-8s8,3.582,8,8v43h18v-69H16V183z"/>
	<path d="M297,106c0-4.418-3.582-8-8-8H8c-4.418,0-8,3.582-8,8v85c0,4.418,3.582,8,8,8h281c4.418,0,8-3.582,8-8V106z M281,183h-18
		v-43c0-4.418-3.582-8-8-8s-8,3.582-8,8v43h-20v-28c0-4.418-3.582-8-8-8s-8,3.582-8,8v28h-19v-43c0-4.418-3.582-8-8-8s-8,3.582-8,8
		v43h-20v-28c0-4.418-3.582-8-8-8s-8,3.582-8,8v28h-20v-43c0-4.418-3.582-8-8-8s-8,3.582-8,8v43H85v-28c0-4.418-3.582-8-8-8
		s-8,3.582-8,8v28H49v-43c0-4.418-3.582-8-8-8s-8,3.582-8,8v43H16v-69h265V183z"/>
</g>
<g>
</g>
<g>
</g>
<g>
</g>
<g>
</g>
<g>
</g>
<g>
</g>
<g>
</g>
<g>
</g>
<g>
</g>
<g>
</g>
<g>
</g>
<g>
</g>
<g>
</g>
<g>
</g>
<g>
</g>
</svg>
