<?xml version="1.0" encoding="UTF-8" standalone="no"?>
<!-- Created with Inkscape (http://www.inkscape.org/) -->

<svg
   xmlns:dc="http://purl.org/dc/elements/1.1/"
   xmlns:cc="http://creativecommons.org/ns#"
   xmlns:rdf="http://www.w3.org/1999/02/22-rdf-syntax-ns#"
   xmlns:svg="http://www.w3.org/2000/svg"
   xmlns="http://www.w3.org/2000/svg"
   xmlns:sodipodi="http://sodipodi.sourceforge.net/DTD/sodipodi-0.dtd"
   xmlns:inkscape="http://www.inkscape.org/namespaces/inkscape"
   width="100"
   height="82"
   viewBox="0 0 100 82"
   id="svg5330"
   version="1.1"
   inkscape:version="0.91 r13725"
   sodipodi:docname="Stakeholder.svg"
   inkscape:export-filename="G:\Workspace\EnterpriseArchitecture\Ducen Architecture Framework\Icons\Kumar\Stakeholder.png"
   inkscape:export-xdpi="14.4"
   inkscape:export-ydpi="14.4">
  <defs
     id="defs5332" />
  <sodipodi:namedview
     id="base"
     pagecolor="#ffffff"
     bordercolor="#666666"
     borderopacity="1.0"
     inkscape:pageopacity="0.0"
     inkscape:pageshadow="2"
     inkscape:zoom="2.8284271"
     inkscape:cx="-28.737553"
     inkscape:cy="82.927751"
     inkscape:document-units="px"
     inkscape:current-layer="layer1"
     showgrid="false"
     inkscape:window-width="1366"
     inkscape:window-height="706"
     inkscape:window-x="-8"
     inkscape:window-y="-8"
     inkscape:window-maximized="1"
     units="px" />
  <metadata
     id="metadata5335">
    <rdf:RDF>
      <cc:Work
         rdf:about="">
        <dc:format>image/svg+xml</dc:format>
        <dc:type
           rdf:resource="http://purl.org/dc/dcmitype/StillImage" />
        <dc:title />
      </cc:Work>
    </rdf:RDF>
  </metadata>
  <g
     inkscape:label="Layer 1"
     inkscape:groupmode="layer"
     id="layer1"
     transform="translate(0,-970.36216)">
    <rect
       style="opacity:1;fill:#ffffff;fill-opacity:1;stroke:#ffffff;stroke-width:3.221457;stroke-miterlimit:4;stroke-dasharray:none;stroke-opacity:1"
       id="rect4301"
       width="83.368668"
       height="82.863594"
       x="9.7071781"
       y="970.14545"
       inkscape:export-xdpi="20.790001"
       inkscape:export-ydpi="20.790001" />
    <ellipse
       style="fill:none;stroke:#bbd337;stroke-width:3.03461981;stroke-miterlimit:4;stroke-dasharray:none;stroke-opacity:1"
       id="path5878"
       cx="-50.387981"
       cy="-996.95135"
       transform="scale(-1,-1)"
       rx="11.962192"
       ry="10.718697"
       inkscape:export-xdpi="22.860001"
       inkscape:export-ydpi="22.860001" />
    <path
       style="fill:none;stroke:#bbd337;stroke-width:2.48699999;stroke-miterlimit:4;stroke-dasharray:none;stroke-opacity:1"
       id="path5887"
       sodipodi:type="arc"
       sodipodi:cx="-51.042484"
       sodipodi:cy="-1032.808"
       sodipodi:rx="30.891741"
       sodipodi:ry="23.099039"
       sodipodi:start="0"
       sodipodi:end="3.1249907"
       d="m -20.150743,-1032.808 a 30.891741,23.099039 0 0 1 -30.635313,23.0983 30.891741,23.099039 0 0 1 -31.143912,-22.7148"
       transform="scale(-1,-1)"
       sodipodi:open="true"
       inkscape:export-xdpi="22.860001"
       inkscape:export-ydpi="22.860001" />
    <circle
       style="opacity:1;fill:none;fill-opacity:1;stroke:#bbd337;stroke-width:3;stroke-miterlimit:4;stroke-dasharray:none;stroke-opacity:1"
       id="path4137"
       cx="51.029362"
       cy="1011.69"
       r="37.863632"
       inkscape:export-xdpi="22.860001"
       inkscape:export-ydpi="22.860001" />
    <path
       style="fill:none;fill-rule:evenodd;stroke:#000000;stroke-width:1px;stroke-linecap:butt;stroke-linejoin:miter;stroke-opacity:1"
       d="m 45.709402,1011.1984 2.525382,8.0813 -4.545687,18.9403 6.060916,3.5356"
       id="path4140"
       inkscape:connector-curvature="0" />
    <path
       style="fill:none;fill-rule:evenodd;stroke:#000000;stroke-width:1px;stroke-linecap:butt;stroke-linejoin:miter;stroke-opacity:1"
       d="m 53.630136,1011.1833 -2.525382,8.0813 4.545687,18.9403 -6.060916,3.5356"
       id="path4140-4"
       inkscape:connector-curvature="0" />
    <path
       style="fill:none;fill-rule:evenodd;stroke:#000000;stroke-width:1.03155708px;stroke-linecap:butt;stroke-linejoin:miter;stroke-opacity:1"
       d="m 45.903389,1011.7205 c 0.180139,-0.063 0.360279,-0.1256 0.540418,-0.1884 0.03002,-0.062 0.03421,-0.1494 0.09007,-0.1884 0.09007,-0.063 0.180139,0.032 0.270209,0 0.06369,-0.022 0.116451,-0.072 0.180139,-0.094 0.05697,-0.02 0.126432,0.028 0.18014,0 0.03798,-0.02 0.05209,-0.074 0.09007,-0.094 0.05371,-0.028 0.123174,0.02 0.180139,0 0.31049,-0.1083 0.06672,-0.094 0.270209,-0.094 0.03002,0 0.06004,0 0.09007,0 0.03002,0 0.06322,0.014 0.09007,0 0.03798,-0.02 0.05209,-0.075 0.09006,-0.094 0.02671,-0.014 0.453301,0 0.540419,0 0.03002,0 0.06884,0.022 0.09006,0 0.120093,-0.1256 -0.150116,-0.094 0.09007,-0.094 0.06004,0 0.120093,0 0.180139,0 0.03002,0 0.07665,0.029 0.09007,0 0.02685,-0.056 -0.02685,-0.1321 0,-0.1884 0.01343,-0.028 0.06004,0 0.09007,0 0.09007,0 0.180139,0 0.270209,0 0.210162,0 0.420325,0 0.630488,0 0.02141,0 0.340091,-0.01 0.360279,0 0.03798,0.02 0.05209,0.075 0.09007,0.094 0.02577,0.014 0.402232,0 0.450348,0 0.210162,0 0.420325,0 0.630488,0 0.03002,0 0.06884,-0.022 0.09007,0 0.02123,0.022 -0.02123,0.072 0,0.094 0.01753,0.018 0.417459,-0.017 0.450348,0 0.02685,0.014 -0.02123,0.072 0,0.094 0.06022,0.063 0.119913,-0.063 0.18014,0 0.02123,0.022 -0.02123,0.072 0,0.094 0.04246,0.044 0.13768,-0.044 0.180139,0 0.02123,0.022 -0.02123,0.072 0,0.094 0.02123,0.022 0.06004,0 0.09007,0 0.06004,0 0.126432,-0.028 0.180139,0 0.02685,0.014 -0.02123,0.072 0,0.094 0.04246,0.044 0.153286,-0.056 0.18014,0 0.02685,0.056 -0.02685,0.1323 0,0.1884 0.02685,0.056 0.180139,-0.062 0.180139,0 0,0.032 -0.111299,-0.022 -0.09006,0 0.116922,0.1223 0.217584,0.094 0.360278,0.094 0.03002,0 0.06884,-0.022 0.09007,0 0.02123,0.022 0.02685,0.08 0,0.094 -0.05371,0.029 -0.120093,0 -0.180139,0"
       id="path4161"
       inkscape:connector-curvature="0" />
    <path
       style="opacity:1;fill:#000000;stroke:#000000;stroke-width:0.37880719;stroke-miterlimit:4;stroke-dasharray:none;stroke-opacity:1;fill-opacity:1"
       d="m 46.821853,68.987674 -2.426813,-1.436621 2.240443,-9.322178 2.240444,-9.322177 -1.103135,-3.551372 c -0.750141,-2.41496 -1.013745,-3.602608 -0.823783,-3.711489 1.251669,-0.717422 4.878302,-0.788968 5.443955,-0.107398 0.1794,0.216164 -0.05231,1.288474 -0.771673,3.571215 -0.56543,1.79426 -1.031082,3.489576 -1.034782,3.767368 -0.0037,0.277792 0.974147,4.584824 2.172992,9.571182 1.198846,4.986358 2.149408,9.089861 2.112362,9.118895 -0.631049,0.494576 -5.035031,2.896085 -5.282492,2.880564 -0.187387,-0.01174 -1.43277,-0.667848 -2.767518,-1.457989 z"
       id="path4165"
       inkscape:connector-curvature="0"
       transform="translate(0,970.36216)" />
    <path
       style="opacity:1;fill:#000000;fill-opacity:1;stroke:#000000;stroke-width:0.06696428;stroke-miterlimit:4;stroke-dasharray:none;stroke-opacity:1"
       d=""
       id="path4169"
       inkscape:connector-curvature="0"
       transform="translate(0,970.36216)" />
    <path
       style="opacity:1;fill:#000000;fill-opacity:1;stroke:#000000;stroke-width:0.06696428;stroke-miterlimit:4;stroke-dasharray:none;stroke-opacity:1"
       d="m 46.342699,69.961241 c -1.694197,-0.992861 -3.107492,-1.821511 -3.140657,-1.841443 -0.04821,-0.02898 0.39811,-1.945976 2.226536,-9.563201 1.25776,-5.239827 2.286731,-9.567138 2.286605,-9.616245 -1.27e-4,-0.04911 -0.545037,-1.831647 -1.210911,-3.9612 -0.665874,-2.129554 -1.21068,-3.898479 -1.21068,-3.930945 0,-0.03359 0.131233,-0.101297 0.304506,-0.157103 0.29774,-0.09589 0.351065,-0.09787 2.399554,-0.08881 1.152276,0.0051 1.904385,0.01596 1.671354,0.02414 -0.233031,0.0082 -0.442964,0.03415 -0.466518,0.0577 -0.05094,0.05094 0.110421,0.05434 0.636261,0.01341 0.224506,-0.01748 0.347926,-0.04355 0.3125,-0.06601 -0.0322,-0.02042 0.753484,-0.03744 1.74597,-0.03782 1.464276,-5.54e-4 1.81781,0.01084 1.875,0.06046 0.03876,0.03363 0.123806,0.07883 0.188982,0.100446 l 0.118503,0.03931 -1.23927,3.962868 -1.239269,3.962868 2.269465,9.45231 c 1.248205,5.198771 2.280388,9.512579 2.293739,9.586239 l 0.02427,0.133929 -2.953177,1.71875 c -1.624249,0.945312 -3.049504,1.774743 -3.167236,1.843179 l -0.214058,0.124429 -0.08009,-0.13559 c -0.09985,-0.169035 -0.125354,-0.169252 -0.194773,-0.0017 -0.03051,0.07366 -0.07815,0.131964 -0.105863,0.129564 -0.02771,-0.0024 -1.436548,-0.816706 -3.130744,-1.809568 z m 3.984375,0.431561 c 0.349888,-0.202298 0.63616,-0.374758 0.63616,-0.383245 0,-0.0085 -0.293688,0.127655 -0.65264,0.302538 -0.698097,0.340117 -0.672558,0.335493 -1.06611,0.193038 -0.04911,-0.01778 0.02053,0.03823 0.154742,0.124459 0.134215,0.08623 0.25475,0.150982 0.267857,0.1439 0.01311,-0.0071 0.310102,-0.178393 0.659991,-0.38069 z m 4.753443,-2.885135 c -0.02488,-0.130145 -0.03235,-0.126333 -0.07138,0.03641 -0.0221,0.09216 -0.01442,0.115923 0.03174,0.09821 0.03777,-0.01449 0.05282,-0.06562 0.03963,-0.134616 z m -8.23053,-24.821786 c -0.05329,-0.218523 -0.09883,-0.552707 -0.101198,-0.742631 -0.004,-0.32352 -0.0099,-0.343632 -0.09359,-0.318643 -0.04911,0.01467 -0.106217,0.04235 -0.12691,0.06151 -0.02069,0.01916 0.05855,0.347814 0.176103,0.730339 0.117549,0.382525 0.220197,0.689029 0.228107,0.681119 0.0079,-0.0079 -0.02922,-0.193173 -0.08251,-0.411695 z m 5.785663,-0.284228 c 0.117049,-0.379766 0.222012,-0.714447 0.23325,-0.743734 0.01124,-0.02929 -0.02622,-0.06749 -0.08324,-0.08488 -0.05702,-0.0174 -0.139878,-0.06345 -0.184125,-0.102343 -0.07604,-0.06683 -0.07788,-0.06393 -0.03348,0.05283 0.08473,0.222862 0.03269,0.717325 -0.155695,1.479332 -0.07997,0.323481 0.02738,0.03446 0.223294,-0.601199 z M 53.038188,41.1138 c 0.09002,-0.277383 0.07075,-0.328256 -0.06094,-0.16085 -0.06092,0.07745 -0.09437,0.184315 -0.09437,0.301459 0,0.223791 0.05247,0.17629 0.155311,-0.140609 z m -1.23883,-0.07988 c -0.01483,-0.01483 -0.05334,-0.01642 -0.08557,-0.0035 -0.03561,0.01425 -0.02503,0.02483 0.02697,0.02697 0.04706,0.0019 0.07343,-0.0086 0.05859,-0.02345 z m -0.255766,-0.06231 c -0.03683,-0.0238 -0.137277,-0.04073 -0.223215,-0.03762 l -0.15625,0.0057 0.178572,0.03197 c 0.263655,0.04721 0.27394,0.04721 0.200893,0 z m 0.655496,-0.05301 c -0.01425,-0.03561 -0.02483,-0.02503 -0.02697,0.02697 -0.0019,0.04706 0.0086,0.07343 0.02345,0.05859 0.01483,-0.01483 0.01642,-0.05334 0.0035,-0.08557 l 2e-6,0 z"
       id="path4171"
       inkscape:connector-curvature="0"
       transform="translate(0,970.36216)" />
    <path
       style="opacity:1;fill:#000000;fill-opacity:1;stroke:#000000;stroke-width:0.06696428;stroke-miterlimit:4;stroke-dasharray:none;stroke-opacity:1"
       d="m 46.721858,70.198868 c -3.597672,-2.099925 -3.571124,-2.084111 -3.571124,-2.127106 0,-0.04458 1.118356,-4.745685 2.876975,-12.093614 0.701385,-2.930552 1.365955,-5.716939 1.476824,-6.191973 l 0.201579,-0.863696 -0.645684,-2.089278 c -0.355126,-1.149102 -0.907861,-2.93148 -1.2283,-3.960838 -0.320439,-1.029359 -0.577721,-1.875406 -0.571737,-1.880105 0.006,-0.0047 0.14146,-0.05139 0.301058,-0.103749 0.287286,-0.09426 0.32922,-0.0952 4.207033,-0.09503 l 3.916855,1.74e-4 0.204005,0.09911 c 0.136079,0.06611 0.197736,0.12175 0.185179,0.167101 -0.01035,0.03739 -0.567142,1.82071 -1.237306,3.962926 l -1.21848,3.894938 0.747477,3.113991 c 2.745047,11.435862 3.822945,15.968329 3.811277,16.026084 -0.01197,0.05922 -6.11908,3.656282 -6.288321,3.703788 -0.04286,0.01203 -0.08966,-0.02448 -0.121811,-0.09505 -0.06569,-0.144167 -0.115225,-0.144987 -0.179928,-0.003 -0.02797,0.06138 -0.07653,0.111607 -0.107918,0.111607 -0.03139,0 -1.272331,-0.709337 -2.757653,-1.576306 l 0,0 z m 3.229659,0.395449 c 0.444708,-0.249051 0.479858,-0.302016 0.08982,-0.135344 -0.200123,0.08552 -0.419923,0.155486 -0.488444,0.155486 -0.119129,0 -0.120789,0.0029 -0.03793,0.06555 0.118796,0.08985 0.125424,0.08855 0.436547,-0.08569 z M 46.764646,42.333209 c -0.02044,-0.122767 -0.03836,-0.330156 -0.03982,-0.460862 -0.0023,-0.201936 -0.0144,-0.235237 -0.08079,-0.221597 -0.05492,0.01128 -0.07645,0.05534 -0.07248,0.148362 0.0059,0.137821 0.19083,0.799754 0.21591,0.772749 0.0079,-0.0085 -0.0024,-0.115884 -0.02282,-0.238652 z m 5.936193,-0.19671 c 0.07557,-0.243235 0.137395,-0.460992 0.137395,-0.483905 0,-0.03187 -0.1846,-0.145277 -0.236475,-0.145277 -0.005,0 -0.0091,0.155692 -0.0091,0.345982 0,0.19029 -0.01531,0.431361 -0.03401,0.535714 -0.01871,0.104353 -0.02529,0.189732 -0.01463,0.189732 0.01066,0 0.08121,-0.19901 0.156777,-0.442246 z m 0.311995,-0.990672 c 0.03014,-0.100604 0.04623,-0.191492 0.03575,-0.201971 -0.03585,-0.03585 -0.120508,0.1031 -0.148699,0.244055 -0.04134,0.206699 0.04843,0.173251 0.11295,-0.04208 z m -3.009421,-0.285876 c 0.02455,-0.0084 -0.09598,-0.01651 -0.267857,-0.01807 -0.171875,-0.0016 -0.339724,0.01441 -0.372998,0.03549 -0.05554,0.0352 0.533554,0.01918 0.640855,-0.01742 z"
       id="path4173"
       inkscape:connector-curvature="0"
       transform="translate(0,970.36216)" />
  </g>
</svg>
