<?xml version="1.0" encoding="iso-8859-1"?>
<!-- Generator: Adobe Illustrator 19.0.0, SVG Export Plug-In . SVG Version: 6.00 Build 0)  -->
<svg version="1.1" id="Capa_1" xmlns="http://www.w3.org/2000/svg" xmlns:xlink="http://www.w3.org/1999/xlink" x="0px" y="0px"
	 viewBox="0 0 85.585 85.585" style="enable-background:new 0 0 85.585 85.585;" xml:space="preserve">
<g>
	<rect x="37.792" y="5.584" width="2" height="6"/>
	<rect x="41.792" y="5.584" width="2" height="6"/>
	<rect x="45.792" y="5.584" width="2" height="6"/>
	<path d="M75.792,85.585v-4.334v-2v-6.666h-0.005c-0.276-9-8.48-15.708-20.842-18.664c7.656-4.277,12.847-12.627,12.847-22.004
		v-2.332h4v-6h-4.062c-0.093-2-0.29-2.89-0.604-4.227C64.466,8.009,54.459,0,42.792,0c-2.988,0-5.918,0.483-8.782,1.55
		C25.908,4.592,19.867,11.901,18.243,20.39c-0.193,1.013-0.303,2.194-0.371,3.194h-4.08v6h4v2.332
		c0,9.307,5.117,17.437,12.681,21.74C18.206,56.641,10.076,63.925,9.801,72.134l-0.003,7.45H9.792v2h0.004l-0.002,4H75.792z
		 M11.792,81.585h10v2h-10V81.585z M73.792,81.585v2h-10v-2H73.792z M15.792,25.584h54v2h-54V25.584z M34.782,3.352
		c2.565-0.953,5.261-1.436,8.011-1.436c10.733,0,19.939,7.458,22.388,17.898c0.278,1.187,0.44,1.77,0.528,3.77H31.792v-3h-2v3h-2v-3
		h-2v3h-5.917c0.065-1,0.163-1.952,0.333-2.841C21.701,12.936,27.258,6.179,34.782,3.352z M19.792,31.917v-2.332h46v2.332
		c0,12.682-10.317,23-23,23S19.792,44.599,19.792,31.917z M42.794,60.25c-3.434,0-6.292-2.373-6.883-4.305
		c2.188,0.628,4.496,0.971,6.883,0.971s4.694-0.343,6.883-0.971C49.086,57.877,46.228,60.25,42.794,60.25z M33.389,55.241
		c0.147,0.06,0.298,0.343,0.447,0.343h-0.042c0,4,4.037,7,9,7s9-3,9-7h-0.042c0.149,0,0.297-0.283,0.445-0.343
		c12.727,2.396,21.595,9.327,21.595,17.158v7.186h-10v-2h-2v1.666v2v2.334h-38v-2.334v-2v-1.666h-2v2h-10v-7.186
		C11.792,64.568,20.661,57.638,33.389,55.241z"/>
	<path d="M26.792,33.584h2.285c0.16,1,0.976,1.666,1.967,1.666c0.989,0,1.807-0.666,1.967-1.666h0.781v-2h-7V33.584z"/>
	<rect x="38.792" y="45.584" width="8" height="2"/>
	<path d="M46.792,33.584h2.285c0.16,1,0.976,1.666,1.967,1.666c0.989,0,1.807-0.666,1.967-1.666h1.781v-2h-8V33.584z"/>
	<path d="M53.792,66.585v5.95l5,2.5l5-2.5v-5.95H53.792z M61.792,68.585v2.714l-3,1.5l-3-1.5v-2.714H61.792z"/>
</g>
<g>
</g>
<g>
</g>
<g>
</g>
<g>
</g>
<g>
</g>
<g>
</g>
<g>
</g>
<g>
</g>
<g>
</g>
<g>
</g>
<g>
</g>
<g>
</g>
<g>
</g>
<g>
</g>
<g>
</g>
</svg>
