<?xml version="1.0" encoding="iso-8859-1"?>
<!-- Generator: Adobe Illustrator 18.0.0, SVG Export Plug-In . SVG Version: 6.00 Build 0)  -->
<!DOCTYPE svg PUBLIC "-//W3C//DTD SVG 1.1//EN" "http://www.w3.org/Graphics/SVG/1.1/DTD/svg11.dtd">
<svg version="1.1" id="Capa_1" xmlns="http://www.w3.org/2000/svg" xmlns:xlink="http://www.w3.org/1999/xlink" x="0px" y="0px"
	 viewBox="0 0 487.012 487.012" style="enable-background:new 0 0 487.012 487.012;" xml:space="preserve">
<g>
	<path d="M218.525,157.279l-51.844-0.001c21.495-7.605,36.941-28.123,36.941-52.191c0-30.521-24.83-55.351-55.351-55.351
		s-55.351,24.83-55.351,55.351c0,24.067,15.445,44.586,36.94,52.191l-51.844-0.001c-13.616,0-24.696,11.079-24.698,24.698
		l0.001,111.081c0,13.438,10.79,24.406,24.164,24.692v136.99c0,17.795,14.478,32.272,32.273,32.272h6.746
		c15.866,0,28.62-11.429,31.77-28.101c3.187,16.671,15.942,28.101,31.765,28.101h6.746c17.796,0,32.274-14.477,32.274-32.272
		v-136.99c13.373-0.284,24.164-11.251,24.164-24.69V181.976C243.221,168.358,232.142,157.279,218.525,157.279z M118.921,105.087
		c0-16.184,13.167-29.351,29.351-29.351s29.351,13.167,29.351,29.351c0,16.185-13.167,29.352-29.351,29.352
		S118.921,121.271,118.921,105.087z M217.223,291.755h-11.164c-7.18,0-13,5.82-13,13v149.984c0,3.459-2.814,6.272-6.274,6.272
		h-6.746c-4.224,0-5.998-4.994-6.381-7.944c-2.893-22.306-12.416-90.177-12.512-90.859c-0.9-6.416-6.388-11.189-12.866-11.193
		c-0.002,0-0.005,0-0.008,0c-6.475,0-11.963,4.766-12.871,11.177c-0.096,0.675-9.587,67.71-12.521,90.918
		c-0.371,2.935-2.131,7.902-6.375,7.902h-6.746c-3.459,0-6.273-2.813-6.273-6.272V304.755c0-7.18-5.82-13-13-13H79.321
		L79.32,183.277l47.005,0.001l8.169,10.234l-11.233,66.789c-0.646,3.843,0.466,7.773,3.029,10.708l12.191,13.957
		c2.469,2.826,6.038,4.448,9.791,4.448c3.752,0,7.321-1.621,9.79-4.447l12.19-13.954c2.564-2.935,3.676-6.865,3.03-10.709
		l-11.232-66.792l8.168-10.234l47.005,0.001V291.755z"/>
	<path d="M428.46,111.129L350.415,9.867C345.583,3.597,338.56,0,331.147,0c-7.414,0-14.438,3.597-19.27,9.867l-78.045,101.26
		c-5.492,7.127-6.727,15.108-3.388,21.897c3.339,6.789,10.413,10.683,19.41,10.683h9.933v208.977
		c0,11.935,9.711,21.645,21.646,21.645l99.424,0.001c11.936,0,21.647-9.71,21.647-21.646V143.706h9.934
		c8.997,0,16.071-3.894,19.41-10.683C435.187,126.234,433.953,118.254,428.46,111.129z M389.504,117.706c-7.18,0-13,5.82-13,13
		v217.623l-90.717-0.001V130.707c0-7.18-5.82-13-13-13h-11.2l69.559-90.25l69.558,90.249H389.504z"/>
</g>
<g>
</g>
<g>
</g>
<g>
</g>
<g>
</g>
<g>
</g>
<g>
</g>
<g>
</g>
<g>
</g>
<g>
</g>
<g>
</g>
<g>
</g>
<g>
</g>
<g>
</g>
<g>
</g>
<g>
</g>
</svg>
