<?xml version="1.0" encoding="iso-8859-1"?>
<!-- Generator: Adobe Illustrator 17.1.0, SVG Export Plug-In . SVG Version: 6.00 Build 0)  -->
<!DOCTYPE svg PUBLIC "-//W3C//DTD SVG 1.1//EN" "http://www.w3.org/Graphics/SVG/1.1/DTD/svg11.dtd">
<svg version="1.1" id="Capa_1" xmlns="http://www.w3.org/2000/svg" xmlns:xlink="http://www.w3.org/1999/xlink" x="0px" y="0px"
	 viewBox="0 0 422.102 422.102" style="enable-background:new 0 0 422.102 422.102;" xml:space="preserve">
<path d="M94.251,82.799H109.4c-1.175,37,12.638,66.34,37.962,81.386c10.72,6.368,22.735,9.517,34.754,9.516
	c12.016-0.001,24.035-3.131,34.752-9.497c25.326-15.046,39.14-44.405,37.967-81.405h15.148c3.983,0,7.586-2.435,9.173-6.088
	c1.586-3.653,0.854-7.936-1.866-10.846c-3.647-3.904-7.26-7.995-11.084-12.307c-21.711-24.479-46.317-52.235-83.74-53.549
	c-0.232-0.008-0.469-0.012-0.701-0.004c-37.42,1.314-62.024,29.055-83.731,53.534c-3.826,4.313-7.438,8.387-11.088,12.292
	c-2.72,2.91-3.452,7.228-1.866,10.882C86.665,80.365,90.268,82.799,94.251,82.799z M206.653,146.991
	c-15.135,8.992-33.94,9.028-49.075,0.036c-19.003-11.29-29.269-35.228-28.166-64.228h105.41
	C235.924,111.799,225.657,135.701,206.653,146.991z M182.115,20.144c26.897,1.117,46.668,21.655,65.438,42.655h-130.87
	C135.449,41.799,155.218,21.261,182.115,20.144z M250.589,377.799H91.847l21.378-115.259c4.149-22.401,19.592-34.11,31.799-40.052
	c0.985-0.479,2.021-0.863,3.021-1.301v29.611h-3.877c-4.872,0-9.034,3.546-9.856,8.348l-13.198,77.092
	c-0.933,5.443,2.725,10.621,8.169,11.553c5.439,0.932,10.612-2.755,11.544-8.199l11.775-68.794h61.095l11.775,68.798
	c0.932,5.444,6.093,9.11,11.544,8.186c5.444-0.932,9.102-6.092,8.169-11.535l-13.198-77.106c-0.822-4.802-4.985-8.342-9.856-8.342
	h-4.085v-28.681c1,0.436,1.971,0.889,2.875,1.361c4.896,2.559,10.999,0.663,13.557-4.23c2.559-4.895,0.696-10.937-4.199-13.494
	c-28.259-14.771-65.165-15.23-94.046-1.173c-23.105,11.247-38.258,30.591-42.682,54.468L69.988,386.284
	c-0.541,2.921,0.247,5.779,2.146,8.063c1.9,2.284,4.72,3.453,7.69,3.453h170.765c5.522,0,10-4.478,10-10
	S256.112,377.799,250.589,377.799z M168.045,215.496c10-1.556,20-1.437,30,0.35v34.954h-30V215.496z M349.529,267.135
	c-2.716,4.428-6.87,6.905-13.717,11.011c-1.612,0.967-17.767,10.831-17.767,10.831v123.125c0,5.522-4.478,10-10,10s-10-4.478-10-10
	V288.977c0,0-16.046-9.866-17.66-10.834c-6.845-4.104-11.002-6.581-13.717-11.008c-2.997-4.888-2.896-9.795-2.684-16.586
	c0.077-2.474,0.061-29.608,0.061-29.608c0-5.522,4.478-10,10-10s10,4.478,10,10c0,0,0.001,27.741-0.076,30.23
	c-0.064,2.082-0.039,4.393,0.035,5.603c1.209,0.935,3.974,2.599,6.672,4.216c1.668,1,7.369,4.512,7.369,4.512v-42.705
	c0-5.522,4.478-10,10-10s10,4.478,10,10v42.705c0,0,5.842-3.509,7.508-4.508c2.7-1.619,5.484-3.285,6.693-4.22
	c0.073-1.211,0.014-3.522-0.051-5.605c-0.077-2.489-0.15-30.228-0.15-30.228c0-5.522,4.478-10,10-10s10,4.478,10,10
	c0,0,0.063,27.134,0.141,29.606C352.397,257.339,352.527,262.248,349.529,267.135z"/>
<g>
</g>
<g>
</g>
<g>
</g>
<g>
</g>
<g>
</g>
<g>
</g>
<g>
</g>
<g>
</g>
<g>
</g>
<g>
</g>
<g>
</g>
<g>
</g>
<g>
</g>
<g>
</g>
<g>
</g>
</svg>
